<svg version="1.1" width="28" height="21.66" fill="#05294b" class="settings-icon" xmlns="http://www.w3.org/2000/svg" xmlns:xlink="http://www.w3.org/1999/xlink" x="0px" y="0px" viewBox="0 0 252.7 195.5" enable-background="new 0 0 252.7 195.5" xml:space="preserve">
                  <g>
                  <path d="M224,54.6c4.9,0,9.3-0.1,13.6,0c9.5,0.4,14.1,6.5,11.9,15.8c-8.4,35.2-16.8,70.4-25.3,105.6
                c-2.2,9.1-5.1,11.4-14.5,11.4c-63.4,0-126.7,0-190.1,0c-10.4,0-14.2-3.9-14.3-14.1c0-43.5,0-87,0-130.6c0-10.3,3.6-13.9,13.7-14
                c1.3,0,2.6-0.2,3.8,0c4.8,0.8,7.5-1.1,8.6-5.9c0.5-2.5,1.6-4.8,2.5-7.2c1.7-4.9,5.3-7.4,10.3-7.4c16.8-0.1,33.5-0.1,50.3,0
                c5.6,0,8.9,3,10.9,8.3c4.5,12.3,4.7,12.3,17.6,12.3c28.2,0,56.4,0,84.7,0c13.7,0,16.4,2.7,16.4,16.2C224,48,224,51,224,54.6z
                M114.7,178.8c31.3,0,62.6-0.1,93.9,0.1c5.2,0,6.9-1.3,6.9-6.7c-0.2-42.8-0.2-85.5,0-128.3c0-5.2-1.4-6.9-6.7-6.9
                c-29.3,0.2-58.6,0.1-87.9,0.1c-16.9,0-17.1,0.1-22.6-15.7c-1.4-3.9-3.4-4.9-7.2-4.8c-12,0.2-24,0.1-36,0.1
                c-12.4,0-12.4,0-16.7,11.4c-2.6,6.8-5.4,8.8-12.6,9c-1.8,0.1-3.7,0.2-5.5,0c-4.9-0.6-6.5,1.3-6.5,6.4c0.2,43,0.2,85.9,0,128.9
                c0,4.9,1.3,6.6,6.4,6.5C51.7,178.7,83.2,178.8,114.7,178.8z M224.2,137.7c0.2,0,0.4,0.1,0.6,0.1c1.7-7.2,3.4-14.4,5.1-21.5
                c3.7-15.5,7.5-31.1,11.1-46.6c0.7-2.9,1.5-6.2-3.1-6.5c-4.5-0.3-9-0.1-13.8-0.1C224.2,88.3,224.2,113,224.2,137.7z"></path>

                  <path d="M114.7,190.1c-31.7,0-63.4,0-95.1,0c-11.9,0-17-5-17-16.9c0-43.5,0-87,0-130.6C2.6,30.9,7.4,26.1,19,26
                c0.3,0,0.7,0,1,0c1.2-0.1,2.3-0.1,3.3,0.1c0.6,0.1,1.1,0.1,1.5,0.1c1.6,0,3.2-0.3,3.9-3.9c0.4-1.9,1.1-3.6,1.7-5.3
                c0.3-0.7,0.6-1.5,0.8-2.2c2.1-5.9,6.6-9.2,12.9-9.3c8.3-0.1,17-0.1,25.6-0.1c8.2,0,16.4,0,24.7,0.1c6.5,0,11,3.4,13.4,10.1
                c2,5.5,3.1,8.4,4.6,9.4c1.5,1.1,4.7,1.1,10.1,1.1h85c15.2,0,19.1,3.9,19.1,18.9v7c0.6,0,1.2,0,1.8,0c1.4,0,2.8,0,4.1,0
                c1.9,0,3.5,0,5,0.1c5.5,0.2,9.8,2.2,12.4,5.6c2.6,3.5,3.3,8.1,2.1,13.5c-8.3,34.9-16.8,70.5-25.3,105.6
                c-2.5,10.3-6.5,13.5-17.1,13.5C178,190.1,146.4,190.1,114.7,190.1z M21.4,31.4c-0.4,0-0.8,0-1.1,0c-0.4,0-0.8,0-1.2,0
                c-8.6,0.1-11,2.5-11,11.2c0,43.5,0,87,0,130.6c0,8.7,2.7,11.4,11.5,11.4c63.4,0,126.7,0,190.1,0c8.2,0,9.9-1.4,11.8-9.3
                c8.5-35.1,17-70.7,25.3-105.6c0.9-3.7,0.5-6.8-1.1-8.9c-1.6-2.1-4.5-3.3-8.3-3.5c-1.4-0.1-2.9-0.1-4.8-0.1c-1.3,0-2.7,0-4.1,0
                c-1.5,0-3,0-4.6,0h-2.7V44.9c0-11.9-1.5-13.4-13.7-13.4h-85c-13.8,0-14.9-0.8-19.8-14c-1.7-4.5-4.1-6.5-8.3-6.5
                c-8.2,0-16.4-0.1-24.6-0.1c-8.7,0-17.3,0-25.6,0.1c-3.9,0-6.5,1.9-7.8,5.6c-0.3,0.8-0.6,1.6-0.9,2.4c-0.6,1.6-1.2,3-1.5,4.5
                c-1.5,6.8-5.8,8.2-9.3,8.2c-0.8,0-1.6-0.1-2.4-0.2C22.2,31.4,21.8,31.4,21.4,31.4z M20.1,181.7c-2.2,0-4.9-0.2-6.8-2.1
                c-1.9-1.9-2.1-4.7-2.1-7.1c0.2-46.5,0.2-88.6,0-128.8c0-2.4,0.2-5.3,2.2-7.3c1.6-1.6,3.9-2.2,7.3-1.8c1.1,0.1,2.6,0.1,4,0l1.1,0
                c6.1-0.2,8-1.5,10.1-7.3C40.5,14.7,41.6,14,55,14c3.4,0,6.7,0,10.1,0c3.3,0,6.7,0,10,0c6.2,0,11.3,0,15.9-0.1l0.4,0
                c5,0,7.8,2,9.4,6.6c2.6,7.3,3.9,10.9,6,12.4c2.1,1.5,6.2,1.5,13.7,1.5h0.3c7.5,0,15,0,22.5,0c7.5,0,15,0,22.5,0
                c17.2,0,30.5,0,42.9-0.1l0.2,0c2.3,0,5.1,0.3,7.1,2.2c2,2,2.2,4.9,2.2,7.4c-0.2,43.2-0.2,86.4,0,128.3c0,2.3-0.2,5.3-2.2,7.2
                c-1.9,1.9-4.7,2.2-7.2,2.2l-0.2,0c-13.5-0.1-28-0.1-46.9-0.1c-7.8,0-15.7,0-23.5,0c-15.7,0-31.4,0-47.1,0c-7.9,0-15.7,0-23.6,0
                c-19,0-33.6,0-47.2,0.1L20.1,181.7z M18.8,39.8c-0.8,0-1.4,0.1-1.6,0.3c-0.2,0.2-0.6,0.9-0.6,3.4c0.2,40.2,0.2,82.4,0,128.9
                c0,2.4,0.3,3,0.5,3.3c0.2,0.2,0.8,0.5,3,0.5l0.1,0c13.6-0.1,28.2-0.1,47.3-0.1c7.9,0,15.7,0,23.6,0c15.7,0,31.4,0,47.1,0
                c7.8,0,15.7,0,23.5,0c19,0,33.4,0,47,0.1l0.2,0c2.3,0,3.1-0.3,3.3-0.6c0.2-0.2,0.6-1,0.6-3.3c-0.2-41.9-0.2-85.1,0-128.3
                c0-2.4-0.3-3.2-0.6-3.5c-0.2-0.2-0.9-0.6-3.2-0.6l-0.2,0c-12.4,0.1-25.7,0.1-42.9,0.1c-7.5,0-15,0-22.5,0c-7.5,0-15,0-22.5,0h-0.3
                c-17.8,0-19-0.8-24.9-17.5c-0.9-2.6-1.8-3-4.3-3l-0.3,0c-4.6,0.1-9.7,0.1-16,0.1c-3.4,0-6.7,0-10.1,0c-3.3,0-6.7,0-10,0
                c-5.4,0-8.4,0-9.8,0.9c-1.4,0.9-2.4,3.7-4.3,8.7c-3,7.8-6.8,10.6-15.1,10.8l-1,0C23.1,40,21.4,40,20,39.8
                C19.6,39.8,19.1,39.8,18.8,39.8z M226.9,140.9l-5.4-0.8V60.3h2.7c1.5,0,2.9,0,4.3,0c1.4,0,2.8,0,4.2,0c2.1,0,3.8,0,5.4,0.1
                c2.3,0.1,4,0.9,5.1,2.4c1.7,2.3,1,5.3,0.5,7.5c-2.5,10.7-5.1,21.4-7.6,32.1c-1.2,4.8-2.3,9.7-3.5,14.5c-1.2,4.9-2.3,9.8-3.5,14.8
                L226.9,140.9z M227,65.8V117c0.1-0.4,0.2-0.9,0.3-1.3c1.2-4.8,2.3-9.7,3.5-14.5c2.6-10.7,5.1-21.4,7.6-32.1c0.2-0.9,0.6-2.4,0.4-3
                c-0.1-0.1-0.4-0.2-1-0.2c-1.5-0.1-3.1-0.1-5.1-0.1c-1.4,0-2.7,0-4.1,0C228.1,65.8,227.5,65.8,227,65.8z"></path>

            </g>
            </svg>