<svg version="1.1" width="28" height="27.92" fill="#05294b" xmlns="http://www.w3.org/2000/svg" xmlns:xlink="http://www.w3.org/1999/xlink" x="0px" y="0px" viewBox="0 0 196 195.5" enable-background="new 0 0 196 195.5" xml:space="preserve">
                  <g>
                  <g>
                  <path d="M190.2,92.3c-0.4,15.9-2.5,29-8.1,41.5c-0.9,2.1-1,5.1-0.3,7.3c3.6,11.2,7.4,22.4,11.4,33.5
                  c2.1,6,1.6,11.4-3.1,15.9c-4.5,4.4-9.7,4.7-15.6,2.6c-11.1-4-22.3-7.8-33.5-11.4c-2.1-0.7-4.9-0.6-6.9,0.3
                  c-48.8,21-104,0-125.3-48.6C-11.6,86.4,8.7,33.6,52.2,11.4c56-28.6,123.1,3.4,136,64.9C189.5,82.3,189.8,88.5,190.2,92.3z
                  M178.6,89.1c-0.7-3.8-1.5-10.2-3.2-16.4c-9.9-36.1-44.7-61.7-82.1-60.3c-24.9,0.9-45.5,11.1-61.7,30.2
                  c-23.7,27.9-25.5,71.9-4,100.7c25.6,34.2,66,44.6,104.9,26.7c3.2-1.5,5.9-1.5,9.1-0.4c11.9,4.2,23.9,8.3,35.9,12.3
                  c1.4,0.5,3,0.3,4.5,0.4c0-1.6,0.3-3.4-0.1-4.8c-3.8-11.5-7.5-22.9-11.7-34.3c-1.6-4.4-1.4-8.2,0.6-12.3
                  C176.8,118.4,178.8,105.3,178.6,89.1z"></path>

                  <path d="M180.9,194.7c-2,0-4.2-0.4-6.6-1.3c-10.7-3.9-22-7.7-33.5-11.4c-2-0.6-4.8-0.5-6.6,0.3
                  c-12.6,5.4-25.7,8.2-39.1,8.2c-18.3,0-36-5.2-51.2-15c-15.6-10.1-27.9-24.6-35.5-42c-9.9-22.6-10.7-47.6-2.4-70.5
                  C14.3,40.4,30.6,21.9,52,11C65.8,4,80.5,0.4,95.7,0.4c21.3,0,42.3,7.3,59,20.6c17.5,13.9,29.3,33,33.9,55.2
                  c0.9,4.3,1.3,8.8,1.7,12.3c0.1,1.4,0.3,2.6,0.4,3.7c-0.4,17.3-2.9,30.1-8.2,41.7c-0.9,1.9-1,4.8-0.3,7c3.1,9.8,6.6,20.1,11.4,33.5
                  c2.4,6.7,1.3,12-3.2,16.3C187.6,193.4,184.5,194.7,180.9,194.7z M138,180.7c1.1,0,2.2,0.2,3.2,0.5c11.5,3.7,22.8,7.5,33.5,11.4
                  c6.2,2.3,11,1.5,15.1-2.5c4.2-4.1,5.2-9.1,3-15.4c-4.7-13.4-8.2-23.7-11.4-33.5c-0.7-2.4-0.6-5.5,0.3-7.6
                  c5.2-11.4,7.7-24.2,8.1-41.3c-0.1-1-0.2-2.3-0.4-3.7c-0.3-3.5-0.8-7.9-1.7-12.2c-9.3-44.2-47.2-75.1-92.1-75.1
                  c-15,0-29.6,3.5-43.3,10.5C8.3,34.3-10.6,87.5,9.3,133.1c15.2,34.8,48.2,56.5,85.9,56.5c13.3,0,26.3-2.7,38.8-8.1
                  C135.1,181,136.5,180.7,138,180.7z M182.4,182.6l-0.5,0c-0.5,0-1,0-1.4,0c-1.1,0-2.2,0-3.2-0.4c-12.4-4.1-24.4-8.3-35.9-12.3
                  c-3.2-1.1-5.7-1-8.8,0.4c-12.5,5.8-25.3,8.7-38,8.7c-26.4,0-50.3-12.6-67.4-35.5c-21.6-28.8-19.8-73.3,4-101.2
                  c16.3-19.2,37.2-29.4,62-30.3c37.6-1.4,72.6,24.5,82.5,60.6c1.2,4.5,2,9.1,2.6,12.7c0.2,1.4,0.4,2.7,0.6,3.7
                  c0.3,17.5-2.2,30.4-7.9,41.9c-2,4.1-2.2,7.7-0.6,12c3.9,10.5,7.5,21.3,10.9,31.8l0.8,2.5c0.4,1.1,0.3,2.3,0.2,3.4
                  c0,0.5-0.1,1-0.1,1.5L182.4,182.6z M137.5,168.3c1.4,0,2.7,0.3,4.2,0.8c11.5,4,23.5,8.1,35.9,12.3c0.9,0.3,1.9,0.3,2.9,0.3
                  c0.3,0,0.7,0,1,0c0-0.4,0-0.8,0.1-1.1c0.1-1.1,0.1-2.2-0.2-3.1l-0.8-2.5c-3.4-10.5-7-21.3-10.9-31.7c-1.7-4.5-1.5-8.4,0.7-12.7
                  c5.6-11.4,8-24.2,7.8-41.4c-0.2-1-0.4-2.2-0.6-3.7c-0.6-3.7-1.4-8.2-2.6-12.7c-9.8-35.8-44.5-61.4-81.7-60
                  c-24.6,0.9-45.2,11-61.4,30c-23.5,27.7-25.3,71.6-4,100.2c17,22.7,40.7,35.2,66.7,35.2c12.6,0,25.2-2.9,37.6-8.6
                  C134.1,168.7,135.8,168.3,137.5,168.3z"></path>

              </g>
                  <g>
                  <path d="M100.3,105.8c0,5.2,0,10.4,0,15.6c0,5.3-2,8.1-5.6,8.2c-3.7,0-5.8-3-5.8-8.4c0-6,0-12.1,0-18.1
                  c0-6.4,0.8-7.3,7.2-8.4c11.6-2.1,17.9-11.6,14.6-22.3c-2.3-7.4-9.7-12.3-17.7-11.6c-7.7,0.7-14.2,6.8-15.2,14.2
                  c-0.2,1.1-0.1,2.3-0.3,3.4c-0.7,3.3-2.8,5-6.1,4.8c-3.4-0.3-5-2.4-5.1-5.8c-0.6-17,17.1-31.5,33.9-27.6
                  c13.7,3.2,22.5,13.7,22.9,27.6c0.4,12.5-8,23.7-20.6,27.7C101.8,105.2,101.2,105.4,100.3,105.8z"></path>

                  <path d="M94.7,129.9c-3.9,0-6.2-3.2-6.2-8.8c0-6,0-12.1,0-18.1c0-6.6,0.9-7.7,7.6-8.9c5.7-1,10.3-3.9,12.9-8.1
                  c2.4-3.9,2.9-8.8,1.4-13.6c-2-6.7-8.5-11.4-15.7-11.4c-0.5,0-1,0-1.5,0.1c-7.5,0.7-13.9,6.6-14.9,13.8c-0.1,0.5-0.1,0.9-0.1,1.4
                  c0,0.7-0.1,1.4-0.2,2c-0.8,3.6-3.1,5.4-6.6,5.1c-3.4-0.3-5.3-2.4-5.5-6.2c-0.3-7.1,2.5-14,7.8-19.5c5.6-5.9,13.3-9.2,20.9-9.2
                  c1.9,0,3.8,0.2,5.7,0.6c13.9,3.2,22.8,13.9,23.2,28.1c0.4,12.7-8,24-20.9,28.1c-0.4,0.1-0.8,0.3-1.3,0.5c-0.2,0.1-0.4,0.1-0.6,0.2
                  l0,4.5c0,3.6,0,7.2,0,10.8C100.7,126.8,98.6,129.9,94.7,129.9L94.7,129.9z M94.6,60.2c7.6,0,14.4,4.9,16.5,12
                  c1.6,5.1,1,10.2-1.5,14.3c-2.7,4.4-7.5,7.5-13.5,8.5c-6.2,1.1-6.8,1.8-6.8,8c0,6,0,12.1,0,18.1c0,5.1,1.9,7.9,5.3,7.9v0.4l0.1-0.4
                  c4.2,0,5.1-4.2,5.1-7.7c0-3.6,0-7.2,0-10.8l0-5.1l0.3-0.1c0.3-0.1,0.6-0.2,0.8-0.3c0.5-0.2,0.9-0.4,1.4-0.5
                  c12.5-4,20.7-14.9,20.3-27.2c-0.4-13.7-9.1-24.1-22.6-27.2c-1.8-0.4-3.7-0.6-5.5-0.6c-7.4,0-14.8,3.3-20.3,9
                  c-5.2,5.4-7.9,12.1-7.6,18.9c0.1,3.4,1.7,5.2,4.7,5.4c3.1,0.2,5-1.3,5.7-4.4c0.1-0.6,0.2-1.2,0.2-1.9c0-0.5,0.1-1,0.1-1.5
                  c1.1-7.6,7.8-13.9,15.6-14.6C93.6,60.2,94.1,60.2,94.6,60.2z"></path>

              </g>
                  <g>
                  <path d="M100.3,143.8c0,3.1-2.8,5.7-5.8,5.6c-3.1-0.1-5.7-2.9-5.4-6c0.3-3.4,2.3-5.1,5.6-5.3
                  C97.8,137.9,100.3,140.5,100.3,143.8z"></path>

                  <path d="M94.6,149.8l-0.2,0c-1.6-0.1-3.2-0.8-4.3-2.1c-1.1-1.2-1.7-2.8-1.5-4.4c0.3-3.5,2.4-5.5,6-5.7
                  c1.6-0.1,3.2,0.5,4.3,1.7c1.2,1.2,1.8,2.7,1.8,4.5C100.7,147,97.9,149.8,94.6,149.8z M94.9,138.5c-0.1,0-0.1,0-0.2,0
                  c-3.2,0.1-5,1.8-5.2,4.9c-0.1,1.4,0.4,2.7,1.3,3.8c1,1.1,2.3,1.7,3.7,1.8l0.2,0c2.8,0,5.2-2.4,5.2-5.2c0-1.5-0.5-2.8-1.5-3.8
                  C97.4,139,96.2,138.5,94.9,138.5z"></path>

              </g>
            </g>
            </svg>