<svg version="1.1" width="28" height="27.92" fill="#05294b" xmlns="http://www.w3.org/2000/svg" xmlns:xlink="http://www.w3.org/1999/xlink" x="0px" y="0px" viewBox="0 0 196 195.5" enable-background="new 0 0 196 195.5" xml:space="preserve">
                  <g>
                  <path d="M32.3,64.9c-3,0-5.6,0-8.1,0c-6.8-0.1-7.9-1-8-7.6c-0.1-8.7,0.1-17.5-0.1-26.2c-0.1-4.1,1.5-6.4,5.5-7.6
                C46.1,15.8,70.5,8,95,0.4c2-0.6,4.6-0.5,6.7,0.2C125.6,8,149.4,15.7,173.3,23c5,1.5,6.7,4.3,6.6,9.3c-0.3,8.2,0,16.3-0.1,24.5
                c0,7.1-1.1,8-8.1,8.1c-2.5,0-5,0-7.9,0c0,19,0,37.7,0,57.1c2,0,3.9,0,5.7,0c10.1,0,10.3,0.3,10.3,10.6c0,7.1,0,14.3,0,22.1
                c3.9,0,7.1,0,10.3,0c3.8,0,5.8,1.7,5.8,5.6c0,9.9,0,19.8,0,29.7c0,4.3-2.4,5.7-6.4,5.6c-8.9-0.1-17.9,0-26.8,0
                c-51.3,0-102.6,0-153.9,0c-8.6,0-8.9-0.4-8.9-8.8c0-8.2,0-16.3,0-24.5c0-6.9,0.7-7.6,7.8-7.6c2.5,0,5,0,8.4,0c0-7.6,0-14.9,0-22.3
                c0-10.2,0.2-10.4,10.5-10.4c1.7,0,3.5,0,5.6,0C32.3,102.9,32.3,84.2,32.3,64.9z M8.5,186.8c60,0,119.5,0,178.9,0
                c0-8.1,0-15.8,0-23.9c-1.7,0-3,0-4.3,0c-22.7,0-45.5,0-68.2,0c-1.7,0-3.8,0.4-5.2-0.3c-1.4-0.7-3-2.5-3.2-4.1
                c-0.1-1.1,1.7-2.9,3.1-3.5c1.5-0.7,3.4-0.4,5.2-0.4c16.7,0,33.4,0,50.1,0c2.1,0,4.1,0,6.3,0c0-8.5,0-16.2,0-24
                c-49,0-97.7,0-146.4,0c0,8.1,0,15.7,0,24c2.3,0,4.2,0,6.1,0c16.7,0,33.4,0,50.1,0c1.6,0,3.4-0.4,4.6,0.2c1.6,0.9,3.4,2.6,3.7,4.2
                c0.2,0.9-2.1,2.8-3.6,3.6c-1.3,0.6-3,0.2-4.6,0.2c-22.1,0-44.3,0-66.4,0c-2,0-4.1,0-6.3,0C8.5,171.2,8.5,178.8,8.5,186.8z
                M171.6,56.3c0-7.1-0.2-13.5,0.1-19.8c0.2-4-1.1-5.7-5-6.9c-21.7-6.7-43.3-13.7-65-20.4c-1.9-0.6-4.3-0.9-6.1-0.3
                c-22.6,7-45.2,14.1-67.8,21.4c-1.3,0.4-3.1,2.1-3.2,3.3c-0.3,7.5-0.1,15-0.1,22.8C73.8,56.3,122.3,56.3,171.6,56.3z M41.3,65.1
                c0,19.2,0,37.7,0,56.3c5.4,0,10.5,0,15.5,0c0-19,0-37.5,0-56.3C51.5,65.1,46.5,65.1,41.3,65.1z M65.8,65c0,19.3,0,37.9,0,56.5
                c5.4,0,10.3,0,15.3,0c0-19.1,0-37.7,0-56.5C75.8,65,71,65,65.8,65z M105.9,121.6c0-19.1,0-37.7,0-56.3c-5.5,0-10.6,0-15.7,0
                c0,19,0,37.5,0,56.3C95.5,121.6,100.4,121.6,105.9,121.6z M130.5,65.2c-5.6,0-10.5,0-15.5,0c0,19,0,37.7,0,56.3
                c5.4,0,10.4,0,15.5,0C130.5,102.6,130.5,84.1,130.5,65.2z M139.4,65c0,19.3,0,37.9,0,56.5c5.4,0,10.3,0,15.3,0
                c0-19.1,0-37.7,0-56.5C149.4,65,144.6,65,139.4,65z"></path>

                  <path d="M103.8,158.8c-2.8,1.8-4.4,3.8-5.8,3.6c-1.5-0.2-3.7-2.5-3.6-3.8c0-1.3,2.3-3.5,3.8-3.7
                C99.5,154.8,101.1,156.9,103.8,158.8z"></path>

                  <path fill="#C0C0C0" d="M97.9,40.3c19.2,0,38.4,0,57.6,0c1.5,0,3.3-0.3,4.6,0.3c1.3,0.7,2.9,2.4,2.9,3.7c0,1.3-1.5,3-2.8,3.8
                c-1.2,0.7-3,0.4-4.6,0.4c-38.4,0-76.8,0-115.2,0c-1.4,0-3,0.4-4-0.2C35,47.4,33,45.8,33,44.5c0-1.3,1.9-3.1,3.3-3.9
                c1.2-0.7,3-0.2,4.6-0.2C59.9,40.3,78.9,40.3,97.9,40.3z"></path>

                  <rect x="75.8" y="154.6" fill="#C0C0C0" width="50.2" height="8.3"></rect>

            </g>
            </svg>