<svg version="1.1" width="28" height="27.92" fill="#05294b" xmlns="http://www.w3.org/2000/svg" xmlns:xlink="http://www.w3.org/1999/xlink" x="0px" y="0px" viewBox="0 0 196 195.5" enable-background="new 0 0 196 195.5" xml:space="preserve">
                  <path d="M195,99.1c0,53.1-43.2,96.3-96.4,96.5c-53.1,0.1-96.4-43-96.6-96.3C1.9,46.1,45.4,2.5,98.6,2.6
                C151.7,2.6,195,46,195,99.1z M166.2,151.2c24.5-29.9,26.4-80.9-8.6-114.4c-32-30.6-83-32.7-117.4-0.7C5,68.8,5.6,120.3,30.8,151.3
                c15.4-25.4,38.3-38,67.5-38C127.6,113.3,150.7,125.5,166.2,151.2z M98.9,184.9c21.2-0.4,40.6-7.5,57.2-22.3c1.7-1.5,2-2.8,1-4.9
                c-3.8-7.9-9.2-14.5-16.1-19.7c-18.4-13.7-38.9-17.4-60.9-11.7c-17.3,4.5-30.8,14.3-39.6,30.3c-1.5,2.7-1.5,4.5,1.1,6.7
                C57.8,177.2,76.7,184.4,98.9,184.9z"></path>

                  <path d="M98.6,109.8c-20.3,0-36.4-16.1-36.5-36.6c-0.1-20,16.2-36.3,36.3-36.4c19.9-0.1,36.5,16.4,36.6,36.3
                C135.1,93.4,118.8,109.8,98.6,109.8z M98.5,99c14,0,25.7-11.5,25.8-25.7c0.2-13.8-11.9-25.9-25.8-25.8c-14,0.1-25.5,11.7-25.5,25.6
                C72.9,87.4,84.4,99,98.5,99z"></path>

              </svg>