<svg version="1.1" width="28" height="31.48" fill="#05294b" class="settings-icon settings-icon-password" xmlns="http://www.w3.org/2000/svg" xmlns:xlink="http://www.w3.org/1999/xlink" x="0px" y="0px" viewBox="0 0 142.8 195.5" enable-background="new 0 0 142.8 195.5" xml:space="preserve">
                  <g>
                  <g>
                  <path d="M28.8,80.6c0-6.8-0.1-13.1,0-19.4c0.2-8.4-0.4-16.9,0.9-25.1C33,14.6,52.6-0.5,74.4,1
                  c21.4,1.4,39,19.6,39.4,41.1c0.2,11.1,0.1,22.3,0.1,33.4c0,1.5,0,3.1,0,5.1c4.6,0,8.8-0.1,12.9,0c9.7,0.2,15,5.5,15,15.2
                  c0.1,28.1,0.1,56.1,0,84.2c0,9.8-5.6,15.3-15.4,15.3c-36.7,0-73.5,0-110.2,0c-9.8,0-15.3-5.5-15.4-15.3c-0.1-28.1-0.1-56.1,0-84.2
                  c0-9.9,5.4-15.1,15.4-15.3C20.3,80.6,24.3,80.6,28.8,80.6z M71.1,186c17.8,0,35.6,0,53.4,0c7.3,0,8.1-0.8,8.1-7.9
                  c0-26.8,0-53.5,0-80.3c0-6.8-1.1-7.9-7.8-7.9c-35.6,0-71.2,0-106.8,0c-6.8,0-7.9,1.1-7.9,7.8c0,26.9,0,53.8,0,80.7
                  c0,6.6,0.9,7.5,7.5,7.5C35.5,186,53.3,186,71.1,186z M38.3,80.2c22.2,0,44.1,0,66,0c0.1-1.2,0.2-2.1,0.2-2.9
                  c0-12.1,0.2-24.3-0.2-36.4c-0.6-14.9-13-28.1-27.6-30.2c-15.9-2.3-31.2,6.6-36.2,21.3c-1.1,3.2-1.9,6.7-2,10.1
                  C38.2,54.7,38.3,67.4,38.3,80.2z"></path>

                  <path d="M71.4,196.3c-18.4,0-36.7,0-55.1,0C6,196.2,0.1,190.3,0,180.1C0,151.9,0,123.6,0,95.9
                  c0-10.4,5.6-16,16.3-16.1c2.7,0,5.5,0,8.3,0c1.1,0,2.2,0,3.3,0c0-1.8,0-3.6,0-5.3c0-4.6,0-8.8,0-13.2c0-2.3,0-4.6,0-6.9
                  c0-6,0-12.3,0.9-18.3C32,15.1,50,0,71.6,0c1,0,1.9,0,2.9,0.1c22.1,1.4,39.8,19.9,40.3,42c0.2,7.7,0.1,15.5,0.1,23.1
                  c0,3.5,0,6.9,0,10.4l0,3.1l0,1.1c1.2,0,2.3,0,3.4,0c3,0,5.8,0,8.7,0c10.2,0.2,15.8,5.9,15.8,16.1c0.1,28,0.1,56.3,0,84.2
                  c0,10.3-5.9,16.2-16.2,16.2C108.1,196.3,89.7,196.3,71.4,196.3z M20.8,81.5c-1.5,0-3,0-4.5,0c-9.6,0.1-14.5,5-14.5,14.4
                  c-0.1,27.7-0.1,56.1,0,84.2c0,9.3,5.2,14.4,14.5,14.5c36.7,0,73.5,0,110.2,0c9.3,0,14.5-5.1,14.5-14.5c0.1-27.9,0.1-56.2,0-84.2
                  c0-9.2-4.9-14.2-14.1-14.4c-2.8-0.1-5.6,0-8.6,0c-1.4,0-2.8,0-4.3,0h-0.9v-6c0-3.5,0-6.9,0-10.4c0-7.5,0.1-15.3-0.1-23
                  C112.5,20.9,95.5,3.2,74.4,1.8c-0.9-0.1-1.9-0.1-2.8-0.1c-20.7,0-38,14.5-41,34.5c-0.9,5.9-0.9,12.1-0.8,18c0,2.3,0,4.6,0,7
                  c-0.1,4.3-0.1,8.6,0,13.2c0,2,0,4.1,0,6.2v0.9h-0.9c-1.4,0-2.8,0-4.2,0C23.3,81.5,22.1,81.5,20.8,81.5z M40.6,186.8
                  c-7.6,0-15.2,0-22.9,0c-7.1,0-8.4-1.3-8.4-8.4c0-26.9,0-53.8,0-80.7c0-7.2,1.5-8.7,8.7-8.7c35.6,0,71.2,0,106.8,0
                  c7.2,0,8.6,1.5,8.6,8.8c0,26.8,0,53.5,0,80.3c0,7.6-1.2,8.7-9,8.7l-21.3,0l-32.1,0L40.6,186.8z M71.4,90.8c-17.8,0-35.6,0-53.4,0
                  c-6.3,0-7,0.6-7,6.9c0,26.9,0,53.8,0,80.7c0,6.1,0.6,6.7,6.7,6.7c7.6,0,15.2,0,22.9,0l30.5,0l32.1,0l21.3,0c6.8,0,7.2-0.4,7.2-7
                  c0-26.8,0-53.5,0-80.3c0-6.3-0.7-7-6.9-7C107,90.8,89.2,90.8,71.4,90.8z M105.1,81.1H37.5v-0.9c0-3.5,0-7,0-10.5
                  c0-9.1-0.1-18.5,0.1-27.7c0.1-3.1,0.7-6.6,2-10.4C44.2,18.4,57,9.4,71.6,9.4c1.7,0,3.4,0.1,5.1,0.4c15.3,2.2,27.8,15.8,28.4,31
                  c0.3,8.5,0.3,17.2,0.3,25.6c0,3.6,0,7.2,0,10.9c0,0.6,0,1.2-0.1,1.9c0,0.3-0.1,0.7-0.1,1.1L105.1,81.1z M39.2,79.4h64.3
                  c0-0.1,0-0.2,0-0.3c0.1-0.6,0.1-1.2,0.1-1.7c0-3.6,0-7.3,0-10.9c0-8.4,0.1-17-0.3-25.5C102.8,26.5,91,13.6,76.5,11.5
                  c-1.6-0.2-3.2-0.3-4.9-0.3c-13.9,0-26.1,8.5-30.4,21c-1.2,3.6-1.9,6.9-1.9,9.9c-0.2,9.2-0.1,18.6-0.1,27.7
                  C39.2,72.9,39.2,76.2,39.2,79.4z"></path>

              </g>
                  <g>
                  <path d="M58.2,149.4c0.5-5.5-0.4-10.4-3.7-15.4c-5-7.5-2.2-18.5,5-24.1c7.1-5.5,18.4-5.1,24.8,1
                  c7,6.6,8.4,17.6,2.8,25.2c-2,2.6-2.8,5.1-2.6,8.3c0.2,4,0.1,8.1,0,12.1c-0.2,7.7-5.8,13.4-13,13.4c-7.4,0.1-13.1-5.7-13.3-13.6
                  C58.2,154.1,58.2,151.8,58.2,149.4z M67.5,147.6c0,2.9-0.4,5.9,0.2,8.6c0.4,1.6,2.4,2.9,3.7,4.4c1.3-1.4,3.5-2.7,3.7-4.3
                  c0.6-3.8,0.3-7.8,0.2-11.7c-0.2-5.2,0.5-9.8,4.3-14c3.1-3.4,2-9.3-1.5-12.6c-3.5-3.3-9-3.6-12.7-0.6c-3.9,3-5.6,9.3-2.4,12.8
                  C67.8,135.4,67.7,141.3,67.5,147.6z"></path>

                  <path d="M71.3,170.9c-7.8,0-13.8-6.2-14-14.5c0-1.6,0-3.2,0-4.8c0-0.7,0-1.5,0-2.2c0.5-5.9-0.6-10.5-3.6-14.9
                  c-5-7.6-2.6-19.2,5.2-25.3c3.4-2.6,7.8-4.1,12.4-4.1c5.2,0,10.1,1.9,13.6,5.1c7.4,7,8.7,18.6,2.9,26.4c-1.9,2.5-2.6,4.8-2.5,7.7
                  c0.2,4.2,0.1,8.5,0,12.2c-0.2,8.1-6.2,14.2-13.9,14.3L71.3,170.9z M71.4,106.9c-4.2,0-8.2,1.3-11.3,3.7
                  c-7.2,5.6-9.4,16.1-4.9,22.9c3.2,4.8,4.4,9.7,3.9,15.9c0,0.7,0,1.4,0,2.1c0,1.6,0,3.2,0,4.7c0.2,7.3,5.5,12.8,12.3,12.8l0.1,0
                  c6.9-0.1,12-5.4,12.2-12.6c0.1-3.6,0.2-7.9,0-12.1c-0.2-3.3,0.7-6.1,2.8-8.9c5.3-7.1,4.1-17.7-2.7-24.1
                  C80.6,108.6,76.1,106.9,71.4,106.9z M71.3,161.9l-0.6-0.7c-0.4-0.4-0.8-0.8-1.3-1.2c-1.1-1-2.3-2.1-2.6-3.5
                  c-0.5-2-0.4-4.2-0.3-6.3c0-0.8,0.1-1.7,0.1-2.5c0.2-5.8,0.4-11.7-4.3-16.8c-1.4-1.5-2-3.6-1.9-5.9c0.2-3.1,1.9-6.2,4.3-8.1
                  c1.8-1.4,4.1-2.2,6.5-2.2c2.8,0,5.4,1,7.4,2.9c3.7,3.4,5.1,9.8,1.5,13.8c-3.9,4.3-4.3,9.2-4.1,13.4l0,1c0.1,3.6,0.3,7.3-0.2,10.9
                  c-0.2,1.4-1.4,2.5-2.6,3.5c-0.5,0.4-0.9,0.8-1.3,1.2L71.3,161.9z M71.3,116.2c-2,0-3.9,0.7-5.4,1.8c-2,1.6-3.5,4.3-3.7,6.9
                  c-0.1,1.3,0.1,3.2,1.4,4.6c5.2,5.6,5,12.2,4.8,18c0,0.8,0,1.7-0.1,2.6c-0.1,2.1-0.2,4,0.2,5.8c0.2,0.9,1.1,1.7,2.1,2.6
                  c0.3,0.2,0.5,0.5,0.8,0.7c0.3-0.2,0.5-0.5,0.8-0.7c0.9-0.8,1.9-1.7,2-2.5c0.5-3.4,0.3-7,0.2-10.5l0-1c-0.2-4.6,0.2-9.9,4.5-14.6
                  c2.9-3.2,1.6-8.5-1.4-11.3C75.8,117.1,73.6,116.2,71.3,116.2z"></path>

              </g>
            </g>
            </svg>