    <svg version="1.1" width="28" height="31.03" fill="#05294b" xmlns="http://www.w3.org/2000/svg" xmlns:xlink="http://www.w3.org/1999/xlink" x="0px" y="0px" viewBox="0 0 176.4 195.5" enable-background="new 0 0 176.4 195.5" xml:space="preserve">
                        <g>
                        <path d="M176.4,97.4c0-18.8,0-37.6,0-56.4c0-22.9-15.4-38.2-38.3-38.3c-15.3,0-30.5-0.1-45.8,0.1
                c-2.2,0-5.2,0.7-6.4,2.2c-1.3,1.6-2.1,5.1-1.2,6.8c1,2,3.9,3.7,6.2,4.1c4,0.7,8.2,0.2,12.3,0.2c11.9,0,23.7-0.1,35.6,0
                c14.9,0.1,24.1,9.2,24.1,24c0.1,38.3,0.1,76.6,0,114.9c0,15.1-9.2,24.1-24.4,24.2c-14.6,0.1-29.1,0-43.7,0c-1.8,0-3.7,0.2-5.4,0.6
                c-3.4,0.9-4.8,3.4-4.6,6.7c0.2,3.4,2.3,5.4,5.6,5.9c2.2,0.3,4.5,0.2,6.8,0.2c13.8,0,27.7,0,41.5,0c22.1-0.1,37.5-15.6,37.6-37.7
                C176.5,135.8,176.4,116.6,176.4,97.4z"></path>

                        <path d="M23.5,89.8c8.5-8.3,17-16.5,25.4-24.9c4-4,3.6-9.1-0.8-11.3c-3.5-1.8-6.2-0.3-8.7,2.2
                c-8.7,8.7-17.4,17.4-26.1,26.1c-3.6,3.6-7.2,7.2-10.8,10.8c-3.3,3.4-3.5,6.6-0.1,10c12.3,12.4,24.7,24.8,37.2,37.2
                c3.4,3.4,7.3,3.5,10.1,0.6c2.6-2.7,2.5-6.6-0.8-9.8c-8.4-8.4-16.9-16.6-25.4-24.9c0.2-0.4,0.3-0.9,0.5-1.3c1.4,0,2.9,0,4.3,0
                c32.8,0,65.6,0,98.4,0c1.4,0,2.9,0.1,4.2-0.2c3.6-0.7,5.8-2.8,5.7-6.7c-0.1-3.7-2.3-5.6-5.7-6.2c-1.4-0.3-2.8-0.2-4.2-0.2
                c-32.6,0-65.3,0-97.9,0c-1.5,0-3,0-4.5,0C24,90.7,23.8,90.2,23.5,89.8z"></path>

            </g>
            </svg>