<svg version="1.1" width="28" height="28.34" fill="#05294b" class="settings-icon" xmlns="http://www.w3.org/2000/svg" xmlns:xlink="http://www.w3.org/1999/xlink" x="0px" y="0px" viewBox="0 0 193.1 195.5" enable-background="new 0 0 193.1 195.5" xml:space="preserve">
                  <g>
                  <path d="M151.8,193.3c-13.9-0.8-29.3-6.8-43.8-15.1c-39.1-22.5-69.9-53.5-91.9-92.9C8.7,72,3.4,58,2.2,42.7
                c-0.7-9.6,1.8-18,9.3-24.5c4.8-4.1,9.3-8.8,14.5-12.4c7.4-5,15.5-4.6,22.8,0.4c10.5,7.3,17.6,17.6,22.4,29.4
                c3.3,8,1.4,15.3-4.1,21.8c-2.3,2.7-4.7,5.3-7.3,7.7c-2.5,2.4-3.3,5.1-1.9,8.1c2,4.3,4,8.8,6.9,12.6c13.4,17.8,29,33.4,47,46.5
                c1.3,0.9,2.6,1.7,4,2.5c8.7,4.9,10.7,4.7,17.7-2.3c11.4-11.4,20.4-12.8,34.2-4.6c5.6,3.3,10.9,7.3,15.6,11.7
                c12.5,11.6,13,23.9,1.7,36.5c-3.3,3.7-6.9,7.2-10.5,10.6C169,192,162.2,193.5,151.8,193.3z M155.4,187.8c4.2-1.4,9.2-1.8,12.5-4.3
                c5.5-4.2,10.3-9.4,14.6-14.7c5.7-7.1,5.4-14.5-0.9-21.2c-4.2-4.5-9.1-8.6-14.2-12.1c-13.3-9.1-19.6-8.3-30.9,3.1
                c-7.2,7.2-10.7,7.9-20.1,3.9c-2.5-1.1-4.9-2.4-7.1-3.9c-18.6-12.9-34.3-28.8-48.2-46.6c-3.9-5-6.9-10.7-9.5-16.5
                c-2.4-5.5-1.3-10.8,3.5-15.1c1.9-1.7,3.6-3.6,5.4-5.4c5.4-5.6,7-11.9,3.7-19.1c-4.2-9.2-10.1-17.1-18.1-23.3
                C40.4,7.8,34,7.6,27.9,12.2c-5.1,3.8-9.4,8.5-14.1,12.9c-3.7,3.6-4.9,8.1-5,13.1c-0.4,12.3,3.4,23.5,8.3,34.4
                c8.8,19.8,21.3,37.1,35.9,53c19.8,21.6,42.2,40,69,52.4C132.5,182.9,143.4,186.5,155.4,187.8z"></path>

                  <path d="M153.7,195.4c-0.6,0-1.3,0-1.9,0c-13.1-0.8-28.6-6.1-44.8-15.4c-39.5-22.7-70.7-54.3-92.7-93.7
                C5.8,71.2,1.2,57,0.1,42.8c-0.8-11,2.5-19.8,10-26.2c1.5-1.3,3.1-2.7,4.6-4.1c3.2-2.9,6.5-5.9,10.1-8.4c3.9-2.6,7.9-4,12.2-4
                c4.5,0,8.8,1.5,13,4.4c10,7,17.8,17.2,23.2,30.3c3.4,8.3,1.9,16.6-4.4,24c-2.7,3.1-5.1,5.7-7.4,7.9c-2.5,2.4-2,4.3-1.4,5.6l0.6,1.3
                c1.8,3.8,3.6,7.7,6.1,11c13.5,17.9,29.1,33.4,46.6,46.1c1,0.7,2.2,1.5,3.8,2.4c3.4,1.9,5.8,3.1,7.6,3.1c1.9,0,3.7-1.2,7.5-5
                c7.2-7.2,13.5-10.5,20.2-10.5c5,0,10.3,1.8,16.6,5.6c5.7,3.4,11.1,7.4,16,12c13.3,12.3,13.9,25.9,1.8,39.5
                c-3.4,3.8-7.1,7.4-10.6,10.7C170.6,193.4,164.1,195.4,153.7,195.4z M37,4.4c-3.3,0-6.6,1.1-9.8,3.2c-3.4,2.3-6.4,5.1-9.6,8
                c-1.5,1.4-3.1,2.8-4.7,4.2c-6.5,5.6-9.3,13-8.6,22.7c1,13.5,5.5,27.2,13.6,41.7C39.6,123,70.2,154,109,176.3
                c15.6,9,30.5,14.1,42.9,14.8c0.6,0,1.2,0,1.8,0c9.3,0,14.9-1.7,19.4-5.9c3.4-3.2,7.1-6.7,10.4-10.4c10.6-11.8,10.1-22.8-1.5-33.5
                c-4.7-4.3-9.8-8.2-15.3-11.4c-5.7-3.4-10.3-5-14.4-5c-5.5,0-10.8,2.8-17.2,9.2c-4.2,4.2-6.9,6.3-10.5,6.3c-2.8,0-5.7-1.3-9.7-3.6
                c-1.7-1-3-1.8-4.2-2.6c-17.8-13-33.8-28.8-47.5-47c-2.7-3.6-4.7-7.7-6.5-11.8L56,74.1c-1.7-3.7-0.9-7.5,2.4-10.5
                c2.2-2.1,4.6-4.6,7.1-7.6c5.3-6.2,6.5-12.8,3.7-19.6C64.1,23.9,57.1,14.6,47.6,8C44.1,5.6,40.5,4.4,37,4.4z M155.7,189.9l-0.4,0
                c-11.1-1.2-22-4.3-34.1-9.9c-24.7-11.4-47.5-28.7-69.7-52.9c-16.3-17.8-28.2-35.3-36.3-53.5c-4.4-10-8.9-21.9-8.4-35.4
                c0.1-4.1,0.9-10,5.7-14.6c1.2-1.1,2.4-2.3,3.6-3.5c3.4-3.3,6.8-6.7,10.7-9.6c3.3-2.5,6.8-3.8,10.3-3.8c3.7,0,7.3,1.4,10.8,4.1
                c7.9,6.2,14.2,14.3,18.7,24.1c3.5,7.7,2.1,15.1-4.1,21.5l-1,1.1c-1.4,1.5-2.9,3-4.5,4.5c-4,3.6-5,8-3,12.6c3,6.8,5.9,11.9,9.2,16.1
                c14.8,19,30.4,34.1,47.7,46.1c1.9,1.4,4.2,2.6,6.7,3.7c3.7,1.6,6.1,2.3,8.1,2.3c2.9,0,5.4-1.5,9.6-5.7c7-7,12.1-9.9,17.5-9.9
                c4.5,0,9.3,2,16.1,6.6c5.3,3.6,10.2,7.8,14.5,12.4c7.1,7.5,7.4,16,1,24c-5.3,6.5-10.1,11.3-15,15.1c-2.7,2-6,2.8-9.3,3.6
                c-1.4,0.3-2.7,0.6-3.9,1L155.7,189.9z M36.9,11c-2.6,0-5.2,1-7.7,2.9c-3.6,2.7-7,6.1-10.2,9.3c-1.2,1.2-2.4,2.4-3.6,3.5
                c-2.8,2.7-4.2,6.3-4.4,11.6c-0.4,12.6,3.9,24,8.1,33.5c7.9,17.8,19.5,35,35.5,52.4c21.8,23.7,44.2,40.7,68.4,51.9
                c11.5,5.3,21.8,8.3,32.3,9.5c1.3-0.4,2.5-0.7,3.8-1c2.9-0.7,5.7-1.4,7.7-2.8c4.6-3.5,9.3-8.2,14.3-14.4c5-6.2,4.8-12.4-0.8-18.4
                c-4.1-4.4-8.7-8.3-13.8-11.8c-6-4.1-10.1-5.8-13.7-5.8c-4.2,0-8.4,2.5-14.5,8.6c-4.3,4.3-7.9,6.9-12.6,6.9c-2.6,0-5.6-0.8-9.8-2.6
                c-2.8-1.2-5.3-2.6-7.4-4.1c-17.7-12.3-33.6-27.7-48.6-47c-3.5-4.5-6.6-9.9-9.7-16.9c-2.8-6.3-1.4-12.7,4-17.5
                c1.5-1.3,2.8-2.7,4.3-4.2l1-1.1c5-5.2,6.1-10.6,3.3-16.7c-4.2-9.2-10-16.7-17.4-22.5C42.4,12.1,39.6,11,36.9,11z"></path>

            </g>
            </svg>