<svg version="1.1" width="28" height="30.25" fill="#05294b" class="settings-icon" xmlns="http://www.w3.org/2000/svg" xmlns:xlink="http://www.w3.org/1999/xlink" x="0px" y="0px" viewBox="0 0 180.9 195.5" enable-background="new 0 0 180.9 195.5" xml:space="preserve">
                  <g>
                  <g>
                  <path d="M178.6,163.2c0-6.1-1.8-8.3-7.7-9.4c-15.6-2.9-31.2-5.9-46.9-8.5c-3.8-0.6-5-2.1-4.9-5.9
                  c0.1-3.2-0.8-6.5-2-9.5c-0.8-2-2.7-12.4-1.5-14.3c0.3-0.5,1.1-0.9,1.7-1.1c5.2-1.9,7.7-6,8.9-11.2c2-8.8,4.2-17.6,6.3-26.4
                  c0.5-2.1,1.5-4.4-1.5-5.1c-3.1-0.8-3.3,1.9-3.7,3.9c-2.3,9.2-4.5,18.4-6.8,27.6c-1.2,4.7-3.1,6.4-7.9,6.4
                  c-14.6,0.1-29.3,0.1-43.9,0c-4.6,0-6.9-1.9-8-6.4c-1-3.9-1.6-7.9-2.7-11.8C54.2,78,50,64.8,46.5,51.3C40.3,27.7,56.6,8.6,79,9.5
                  c8.2,0.3,16.5-0.1,24.7,0.1c21.1,0.5,35.2,18,31.1,38.8c-0.7,3.7-2.1,7.2-2.8,10.9c-0.3,1.6,0.2,4.3,1.2,4.8
                  c2.4,1.3,3.3-1.1,3.8-3c1.1-3.5,2.1-6.9,3-10.4c5.8-24.5-11.5-46.5-36.6-46.6c-9.1,0-18.1-0.3-27.2,0.1c-4.8,0.2-9.8,1.1-14.2,2.8
                  c-17.8,7-26.3,26.7-20.7,46.5C46,70,50.5,86.3,54.8,102.8c1.5,6,4.1,10.5,10.4,12.3c0,4.5,1.7,10-0.4,12.8
                  c-3.1,4.3-3.4,8.3-3.3,12.8c0.1,2.7-0.8,3.8-3.6,4.3c-14.4,2.5-28.7,5.6-43.2,7.8c-14.1,2.2-12.8,5.5-12.4,16.7
                  c0.1,2.1,2.3,4.1,3.5,6.1c0.8,1.3,2,2.6,2,4c0.6,8.9,3.6,11.9,12.5,11.9c34.2,0,68.3,0,102.5,0c13.1,0,26.2,0,39.3,0
                  c4.3,0,8.2-1.4,9.5-5.5c1.6-4.9,1.9-10,6.2-14C179.4,170.6,178.6,166.2,178.6,163.2z M71.2,115.6h38.3v12.1H71.2V115.6z
                  M173.1,167.8c-0.2,4.9-3.8,3.2-6.2,3.2c-41.5,0.1-83.1,0-124.6,0.2c-0.2,0-0.5,0-0.7,0c0.7,1.6,0.8,3.5,0.8,5.3c0,0,0.1,0,0.1,0
                  c40,0.2,80,0.1,120,0.1h4.4c1,8.5,0.1,9.6-7.9,9.6c-45.7,0-91.5,0-137.2,0c-8.1,0-8.8-0.8-8.3-9.6c2.6,0,5.3,0.2,7.9,0
                  c-0.2-1.3-0.6-2.5-1-3.7c-0.2-0.7-0.1-1.3,0.2-1.7c-2.9-0.2-5.8-0.1-8.7,0c-3.2,0.2-4.5-0.8-4.4-4.2c0.2-8.7-0.6-6.9,6.8-8.3
                  c14.5-2.7,29-5.4,43.6-8c7.5-1.4,8.9-2.9,8.9-10.4c0-0.8,0.1-1.7,0-2.5c-0.5-3.4,1-4.3,4.2-4.3c12.8,0.1,25.7,0.2,38.5,0
                  c3.4,0,4.6,1.1,4.2,4.3c-0.2,1.1,0,2.2,0,3.3c0,6.3,1.6,8.2,7.7,9.3c15.5,2.8,31,5.7,46.5,8.5
                  C173.6,159.8,173.5,159.8,173.1,167.8z"></path>

                  <path d="M162.2,193.6C162.2,193.6,162.2,193.6,162.2,193.6L162.2,193.6c-5.5,0-10.9,0-16.3,0l-79,0
                  c-15.5,0-31,0-46.5,0c-9.9,0-13.9-3.9-14.6-13.9c0-0.4-0.6-1.2-1-1.9c-0.3-0.4-0.5-0.8-0.8-1.2c-0.3-0.6-0.8-1.2-1.3-1.8
                  c-1.1-1.5-2.4-3.2-2.5-5.3c0-0.8-0.1-1.6-0.1-2.4c-0.5-10.1-0.1-14.3,14.3-16.5c8.6-1.3,17.3-3,25.7-4.6
                  c5.7-1.1,11.6-2.2,17.5-3.2c1.8-0.3,2-0.6,1.9-2.2c-0.1-4.2,0-9,3.7-14.1c0.9-1.3,0.6-4.2,0.3-7c-0.1-1-0.2-2-0.3-3.1
                  c-6.8-2.5-9.1-8.4-10.4-13.3c-4.6-17.7-9.4-34.7-13.4-49.1c-6-21.1,3.3-41.8,21.9-49.1c4.3-1.7,9.5-2.7,14.9-3
                  C79.6,2,83.4,1.9,88,1.9c2.9,0,5.9,0,8.8,0.1c2.2,0,4.4,0,6.6,0.1c12.6,0.1,24.1,5.5,31.5,14.9c7.4,9.4,10,21.9,7.1,34.3
                  c-0.8,3.2-1.7,6.5-2.7,9.6l-0.3,1c-0.5,1.6-1.5,4.8-4.5,4.8c-0.7,0-1.5-0.2-2.3-0.7c-2.2-1.2-2.6-5.2-2.3-7c0.4-2.1,0.9-4.1,1.5-6
                  c0.5-1.7,1-3.3,1.3-4.9c1.9-9.4-0.2-18.4-5.7-25.3c-5.5-6.9-13.8-10.8-23.4-11c-3.6-0.1-7.2,0-10.8,0c-2.1,0-4.2,0-6.3,0
                  c-2.9,0-5.3,0-7.6-0.1C68.5,11.2,59.1,15.4,53.3,23c-5.8,7.6-7.5,17.4-4.8,27.8c2.2,8.2,4.6,16.5,7,24.5
                  c1.5,5.1,3.1,10.4,4.6,15.7c0.6,2.3,1.1,4.6,1.6,6.9c0.3,1.6,0.7,3.4,1.1,5c0.9,3.6,2.3,4.8,6,4.8c14.6,0.1,29.3,0.1,43.9,0
                  c3.8,0,4.9-1,5.9-4.8c1.1-4.4,2.2-8.9,3.3-13.4c1.2-4.7,2.3-9.5,3.5-14.2c0.1-0.2,0.1-0.4,0.1-0.6c0.4-1.6,1.1-4.9,4.6-4.9
                  c0.5,0,1,0.1,1.5,0.2c1.4,0.4,2.5,1.1,3.1,2.1c1,1.7,0.5,3.5,0.1,5c-0.1,0.2-0.1,0.4-0.1,0.6l-0.4,1.7c-2,8.1-4,16.5-5.9,24.7
                  c-1.5,6.6-4.9,10.7-10.2,12.7c-0.3,0.1-0.5,0.2-0.6,0.3c-0.5,1.9,0.8,10.3,1.7,12.3c1,2.5,2.2,6.3,2.1,10.3
                  c-0.1,2.8,0.4,3.4,3.2,3.8c13.2,2.2,26.5,4.7,39.4,7.1l7.5,1.4c7,1.3,9.5,4.3,9.4,11.5c0,0.7,0,1.5,0.1,2.3
                  c0.2,3.1,0.4,6.3-1.6,8.1c-2.9,2.6-3.7,5.8-4.7,9.5c-0.3,1.2-0.6,2.3-1,3.5C172.1,191.2,168.1,193.6,162.2,193.6z M145.8,189.4
                  c5.4,0,10.9,0,16.3,0l0,2.1v-2.1c4.1,0,6.6-1.4,7.4-4c0.3-1.1,0.6-2.2,0.9-3.3c1-4,2.1-8.1,5.9-11.6c0.5-0.6,0.3-3.4,0.2-4.7
                  c-0.1-0.9-0.1-1.8-0.1-2.6c0-5.1-1.1-6.4-6-7.4l-7.5-1.4c-12.9-2.4-26.2-4.9-39.3-7.1c-4.8-0.8-6.7-3.1-6.6-8
                  c0.1-3.3-1-6.5-1.8-8.6c-0.6-1.5-3.3-13.2-1.3-16.2c0.7-1.1,1.9-1.6,2.7-1.9c4.1-1.5,6.4-4.5,7.6-9.7c1.9-8.3,3.9-16.6,5.9-24.8
                  l0.4-1.7c0.1-0.2,0.1-0.4,0.2-0.7c0.1-0.5,0.4-1.4,0.3-1.7c-0.1,0-0.2-0.1-0.5-0.2c-0.3-0.1-0.5-0.1-0.5-0.1
                  c-0.2,0.3-0.4,1.2-0.5,1.7c-0.1,0.3-0.1,0.5-0.2,0.7c-1.2,4.7-2.3,9.5-3.5,14.2c-1.1,4.5-2.2,8.9-3.3,13.4c-1.4,5.7-4.2,8-9.9,8
                  c-14.6,0.1-29.3,0.1-43.9,0c-5.6,0-8.7-2.5-10-8c-0.4-1.7-0.8-3.5-1.1-5.2c-0.4-2.2-0.9-4.4-1.5-6.6c-1.5-5.2-3-10.5-4.5-15.6
                  c-2.4-8-4.8-16.3-7-24.6C41.4,40.2,43.4,29,50,20.4c6.4-8.3,16.4-13,27.5-13c0.5,0,1.1,0,1.7,0c2.2,0.1,4.6,0.1,7.4,0.1
                  c2.1,0,4.2,0,6.3,0c3.6,0,7.3-0.1,10.9,0c10.8,0.2,20.3,4.7,26.6,12.5c6.3,7.9,8.6,18.1,6.5,28.7c-0.4,1.8-0.9,3.6-1.4,5.3
                  c-0.6,1.9-1.1,3.7-1.4,5.6c-0.1,0.9,0.1,2.1,0.3,2.7c0.3-0.5,0.6-1.4,0.7-1.8l0.3-1c0.9-3,1.9-6.2,2.6-9.3
                  c2.6-11.1,0.3-22.3-6.4-30.7c-6.6-8.4-16.9-13.2-28.2-13.3c-2.2,0-4.4,0-6.7-0.1c-2.9,0-5.9-0.1-8.8-0.1c-4.5,0-8.2,0.1-11.6,0.2
                  c-5,0.2-9.6,1.2-13.5,2.7c-16.6,6.5-24.8,25-19.4,44c4.1,14.4,8.9,31.5,13.4,49.2c1.7,6.4,4.2,9.5,8.9,10.8l1.5,0.4v1.6
                  c0,1.3,0.2,2.7,0.3,4.1c0.4,3.6,0.8,7.3-1.1,9.9c-2.6,3.6-3,6.9-2.9,11.5c0.1,3.8-1.5,5.8-5.4,6.5c-5.8,1-11.7,2.1-17.4,3.2
                  c-8.4,1.6-17.2,3.3-25.8,4.6C3.8,156.5,3.9,157.9,4.3,167c0,0.8,0.1,1.6,0.1,2.4c0,0.7,0.9,1.9,1.7,2.9c0.5,0.7,1.1,1.4,1.5,2.2
                  c0.2,0.3,0.4,0.6,0.6,1c0.7,1.1,1.6,2.4,1.7,3.9c0.5,7.8,2.7,9.9,10.4,9.9c15.5,0,31,0,46.5,0L145.8,189.4z M86.6,188.2l-64.7,0
                  c-4,0-7-0.1-8.8-2.1c-1.9-2-1.8-5.1-1.6-9.7l0.1-2h2c0.9,0,1.8,0,2.6,0c0.9,0,1.8,0,2.7,0c-0.1-0.4-0.2-0.7-0.3-1
                  c-0.1-0.1-0.1-0.3-0.1-0.4c-1.8,0-3.7,0-6.3,0.1c-2.4,0.1-4-0.3-5.2-1.5c-1.4-1.4-1.5-3.5-1.5-4.9c0-0.9,0-1.6,0-2.3
                  c0.1-5.7,0.6-6.8,5.6-7.6c0.8-0.1,1.7-0.3,2.9-0.5c12.6-2.4,26.4-4.9,43.6-8c6.6-1.2,7.2-1.9,7.2-8.4c0-0.3,0-0.6,0-0.9
                  c0-0.5,0-1,0-1.3c-0.3-2.1,0-3.7,1-4.9c1.4-1.6,3.6-1.8,5.1-1.8l0.2,0c6.6,0.1,13.1,0.1,19.4,0.1c6.5,0,12.9,0,19-0.1l0.2,0
                  c1.5,0,3.6,0.2,5,1.8c1,1.2,1.4,2.8,1.1,5c-0.1,0.6-0.1,1.3,0,2c0,0.4,0,0.7,0,1.1c0,5.3,0.9,6.4,6,7.3c15.5,2.8,31,5.7,46.5,8.5
                  c7.1,1.3,7.2,2.8,6.8,10.7l0,0.4c-0.2,4.7-3.3,5.5-5.1,5.5c-0.7,0-1.3-0.1-1.9-0.2c-0.5-0.1-0.9-0.1-1.2-0.1
                  c-18.9,0-37.7,0.1-56.6,0.1c-21.6,0-44,0-66,0.1c0.1,0.4,0.1,0.7,0.1,1.1c25,0.1,49.9,0.1,71,0.1l53.4,0l0.2,1.8
                  c0.6,4.9,0.6,7.7-1.2,9.7c-1.8,2.1-5.1,2.2-8.8,2.2L86.6,188.2z M15.6,178.6c-0.1,2.1,0,4.1,0.5,4.6c0.7,0.7,3.3,0.8,5.8,0.8
                  l64.7,0l72.5,0c2.4,0,5-0.1,5.6-0.8c0.6-0.7,0.5-2.8,0.3-4.6l-49.7,0c-21.7,0-47.3,0-72.9-0.1c0,0-0.1,0-0.1,0h-2.1l0-2.1
                  c0-1.5-0.1-3.2-0.7-4.5l-1.3-3.1l3.4,0.3c0.2,0,0.4,0,0.5,0c22.7-0.1,45.7-0.1,68-0.1c18.9,0,37.7,0,56.6-0.1
                  c0.6,0,1.2,0.1,1.8,0.2c0.5,0.1,1,0.1,1.4,0.1c0.6,0,0.8,0,0.9-1.5l0-0.4c0.1-2.6,0.3-5.1-0.1-5.6c-0.3-0.3-1.9-0.6-3.3-0.8
                  c-15.5-2.8-31-5.6-46.5-8.5c-7.1-1.3-9.4-4.1-9.4-11.4c0-0.3,0-0.6,0-0.9c0-0.9-0.1-1.8,0.1-2.7c0.2-1.1,0-1.6-0.1-1.7
                  c0,0-0.3-0.3-1.8-0.3l-0.2,0c-6.2,0.1-12.6,0.1-19.1,0.1c-6.3,0-12.8,0-19.4-0.1l-0.2,0c-1.7,0-1.9,0.3-1.9,0.3
                  c-0.1,0.1-0.2,0.5,0,1.5c0.1,0.8,0.1,1.5,0.1,2.1c0,0.2,0,0.5,0,0.7c0,8.5-2.1,11-10.6,12.5c-17.2,3.1-31,5.6-43.6,8
                  c-1.2,0.2-2.2,0.4-3.1,0.5c-0.7,0.1-1.5,0.2-1.9,0.3c-0.1,0.5-0.1,1.8-0.2,3.2c0,0.7,0,1.4,0,2.3c0,1.5,0.3,1.8,0.3,1.8
                  c0,0,0.3,0.3,1.4,0.3c0.2,0,0.4,0,0.6,0c3.8-0.2,6.4-0.2,9,0l3.8,0.3l-2.2,3c0.4,1.2,0.9,2.6,1.1,4l0.3,2.2l-2.2,0.2
                  c-0.9,0.1-1.8,0.1-2.9,0.1c-0.9,0-1.8,0-2.7,0C15.9,178.6,15.8,178.6,15.6,178.6z M111.5,129.8H69.1v-16.3h42.5V129.8z
                  M73.2,125.6h34.1v-7.9H73.2V125.6z"></path>

              </g>
                  <g>
                  <polygon points="132.3,57.8 127.4,74.9 132.3,77.8 138.3,57.1 		"></polygon>

                  <path d="M133.6,80.9l-8.6-5l5.7-20l10.5-1.2L133.6,80.9z M129.9,73.9l1.2,0.7l4.4-15.1l-1.5,0.2L129.9,73.9z"></path>

              </g>
                  <g>
                  <rect x="19.4" y="170.9" width="25.1" height="5.5"></rect>

                  <path d="M46.6,178.5H17.3v-9.6h29.3V178.5z M21.5,174.3h20.9V173H21.5V174.3z"></path>

              </g>
            </g>
            </svg>