<svg width="22" height="22" fill="white" version="1.1" xmlns="http://www.w3.org/2000/svg" xmlns:xlink="http://www.w3.org/1999/xlink" x="0px" y="0px" viewBox="0 0 188.1 188.1" enable-background="new 0 0 188.1 188.1" xml:space="preserve">
                        <path d="M161.1,134.4c0,2.2,0,4,0,5.8c-0.6,21.3-16.4,36.8-37.7,36.7c-3,0-4.9,0.5-6.5,3.6c-2.4,4.9-7.2,7-12.4,7.3
                c-6.7,0.4-13.4,0.3-20.1,0c-9-0.4-15.9-7.6-16.1-16.3c-0.2-8.2,6.6-15.8,15.4-16.5c7-0.5,14-0.4,20.9-0.1c5.9,0.3,10.2,3.4,13.2,8.5
                c0.7,1.1,2.1,2.3,3.2,2.4c18,1.4,31.2-12.9,28.7-31.4c-3.5,0-7.1,0-11.2,0c0-1.9,0-3.4,0-4.8c0-17.6,0.2-35.2-0.1-52.9
                C138,44.1,103.2,23,74.1,37.9c-15.6,8-23.9,21.3-24.4,38.8c-0.5,17.5-0.1,35-0.1,52.4c0,1.5,0,3.1,0,5.3c-2.6,0-5.1,0-7.5,0
                c-8,0-15.9,0.1-23.9,0c-11.2-0.1-18-6.9-18.1-18.1C0,107.7,0,99.2,0,90.7c0-11.2,5.1-16.9,16.6-18.9c2.5-25.5,14.4-45.7,35.9-59.7
                c14.2-9.3,30.2-13,47.2-11.9c35.7,2.4,68.3,31.3,71.6,71.3c2.3,0.7,4.8,1.1,7,2.1c6.7,3.1,9.5,8.7,9.6,15.9c0.1,9.1,0.1,18.2,0,27.3
                c-0.1,10.4-7,17.3-17.4,17.6C167.6,134.5,164.6,134.4,161.1,134.4z M160.1,71.6C157.7,36,125,8.5,88.8,11.2
                c-35.1,2.7-60.1,33.2-60.4,60.5c3.4,0,6.8,0,10.3,0c0.3-1.2,0.5-2.1,0.7-3.1C43.6,42.5,65.6,23.1,92.2,22
                c25.7-1.1,49.2,16.7,55.5,41.8c2.2,8.7,2.2,8.7,11.3,8.1C159.3,71.9,159.5,71.8,160.1,71.6z M149.7,82.9c0,13.7,0,26.9,0,40.4
                c7.2,0,14.2,0,21.2,0c3.9,0,6-2.4,6.1-6.1c0.2-9.4,0.2-18.7,0-28.1c-0.1-4-2.5-6.1-6.5-6.2C163.7,82.9,156.9,82.9,149.7,82.9z
                  M38.4,83c-7.4,0-14.6-0.1-21.9,0.1c-3.5,0.1-5.3,2.4-5.4,5.8c-0.1,9.5-0.3,19,0.1,28.5c0.1,2,2.5,5.3,4,5.4
                c7.7,0.6,15.5,0.3,23.1,0.3C38.4,109.6,38.4,96.5,38.4,83z M94.2,166.1C94.2,166.1,94.2,166,94.2,166.1c-2.9,0-5.9-0.1-8.8,0
                c-3.4,0.1-5.7,1.7-5.8,5.2c-0.2,3.3,1.9,5.5,5,5.6c6.3,0.3,12.6,0.3,18.9,0c3.1-0.1,5.2-2.3,5-5.6c-0.2-3.3-2.2-5.1-5.4-5.2
                C100.1,166,97.2,166.1,94.2,166.1z"></path>
            </svg>