<svg width="22" height="22" fill="white" version="1.1" xmlns="http://www.w3.org/2000/svg" xmlns:xlink="http://www.w3.org/1999/xlink" x="0px" y="0px" viewBox="0 0 196.1 196.3" enable-background="new 0 0 196.1 196.3" xml:space="preserve">
                        <g>
                        <path d="M177.2,44.2c-2,3.6-3.4,7.3-5.8,10.1c-4.3,4.9-5.5,9.3-2.2,15.7c2.1,4.1,4.1,6,8.6,6.5
                  c12.1,1.4,18.1,2.9,17.1,19.6c-0.2,3.3,0,6.6,0,10c-0.2,6.6-3.6,10.8-10,12.3c-0.6,0.1-1.1,0.4-1.7,0.3
                  c-9.4-0.5-14.5,4.3-16.2,13.1c-0.3,1.3-0.1,3.1,0.5,4.2c1.9,3.1,4.2,5.9,6.2,8.9c3.6,5.4,3.1,11.1-1.3,15.8
                  c-3.9,4.1-7.8,8.1-11.9,11.9c-4.5,4.3-10.2,4.6-15.5,1.2c-0.5-0.3-1-0.6-1.4-1c-6.3-6.9-13.4-7-20.8-2.1c-1,0.7-2.1,1.9-2.3,3
                  c-0.8,3.2-1.2,6.5-1.8,9.8c-1.3,7.6-5.7,11.4-13.3,11.4c-5.2,0-10.4,0.1-15.6,0c-6.4-0.1-10.5-3.6-12.1-9.7
                  c-0.2-0.8-0.3-1.7-0.5-2.5c-1.8-12-1.8-12-13.2-15.7c-1-0.3-2.5,0-3.4,0.6c-3.2,2-6.1,4.4-9.2,6.5c-5.4,3.6-11.1,3.1-15.8-1.3
                  c-4.1-3.9-8.1-7.8-11.9-11.9c-4.3-4.6-4.7-10.1-1.2-15.4c0.3-0.5,0.6-1,1-1.4c6.9-6.2,6.9-13.1,2.1-20.3c-0.8-1.2-2.3-2.5-3.6-2.9
                  c-3.6-0.9-7.4-1.2-11-2c-5.8-1.2-9.6-5.6-9.8-11.6c-0.2-5.8-0.2-11.5,0-17.3c0.2-6.1,3.8-10.3,9.7-11.6c3-0.7,5.9-1.5,8.9-1.5
                  c3.9-0.1,4.9-2.5,6.6-5.4c3.8-6.6,2.3-11.5-2.3-17.2c-6.7-8.2-5.9-13.2,1.5-20.7c3.2-3.2,6.3-6.4,9.5-9.5c4.9-4.6,10.5-5,16.1-1.2
                  c0.4,0.2,0.7,0.5,1.1,0.8c9.7,7,9.7,7,20.7,1.9c1.1-0.5,2.2-2.1,2.5-3.4c0.9-3.5,1.2-7.1,1.9-10.6C78.5,5,82.9,1.2,89.4,1.1
                  c5.5-0.1,11-0.1,16.4,0c6.5,0.1,10.8,3.8,12.2,10.1c0.1,0.6,0.3,1.1,0.3,1.7c-0.7,9.9,5.4,14.1,13.8,16.3c1.2,0.3,2.8,0.1,3.9-0.5
                  c3.2-2,6.1-4.4,9.2-6.4c5.2-3.5,10.9-3,15.4,1.3c4.2,4,8.4,8,12.2,12.3C174.6,37.9,175.5,40.9,177.2,44.2z M43.9,166
                  c2.8-2,5-3.5,7.2-5.1c2.4-1.7,4.5-3.8,7.1-4.9c2.1-0.9,5-1.3,7.1-0.6c5.3,1.7,10.6,3.8,15.5,6.4c2,1,3.6,3.3,4.8,5.4
                  c0.9,1.5,0.8,3.6,1,5.5c1.7,11.5,1.7,11.5,13.4,11.5c7.3,0,7.3,0,8.5-7c0.5-3,1.2-5.9,1.5-8.9c0.4-3.8,2.5-5.8,6-6.9
                  c4.2-1.4,8.6-2.8,12.4-5c4.4-2.6,7.8-2.4,11.8,0.7c3.8,3,8.4,7.8,12,7.3c4.1-0.6,7.3-6.4,11-9.8c1.7-1.6,1.9-2.9,0.5-4.8
                  c-2.7-3.6-5.1-7.3-7.8-10.9c-2.2-2.9-2.1-5.6-0.5-8.8c2.3-4.6,4.2-9.5,5.9-14.3c1.1-3.2,3-5.1,6.4-5.5c4.3-0.6,8.5-1.5,12.8-2
                  c2.6-0.3,3.8-1.3,3.6-4.1c-0.2-4-0.2-8.1,0-12.1c0.1-2.6-1-3.6-3.4-3.9c-4.3-0.6-8.5-1.5-12.8-2c-3.6-0.5-5.5-2.4-6.7-5.8
                  c-1.7-4.9-3.7-9.7-5.9-14.3c-1.5-3.1-1.6-5.6,0.5-8.4c3.3-4.4,6.3-8.9,9-12.7c-4.7-4.7-9-9-13.5-13.5c-4.1,2.9-8.3,6.4-13.1,9.1
                  c-2,1.1-5.2,1.2-7.5,0.5c-5.3-1.7-10.4-4.2-15.6-6.2c-3-1.1-4.9-2.7-5.3-6c-0.6-4.6-1.4-9.1-2.5-13.6c-0.3-1.2-2-2.8-3.1-2.9
                  c-4.3-0.3-8.6-0.1-13-0.2c-2.4-0.1-3.3,1-3.7,3.2c-0.7,4.6-1.6,9.1-2.3,13.6c-0.5,3.3-2.3,4.9-5.3,6.1c-5,1.9-9.9,3.9-14.7,6.2
                  c-3.1,1.5-5.7,1.5-8.4-0.6c-3.6-2.7-7.2-5.3-10.9-7.7c-1-0.6-3-1-3.6-0.5c-4.2,3.9-8.1,8-12.1,12c3.5,5,6.7,9.4,9.9,13.9
                  c1.8,2.5,1.9,4.8,0.6,7.7c-2.3,5.1-4.4,10.3-6.3,15.5c-1.1,2.9-2.8,4.5-5.8,5c-4.4,0.7-8.8,1.7-13.2,2.2c-2.7,0.3-3.4,1.5-3.3,3.9
                  c0.1,4.2,0.1,8.4,0,12.5c-0.1,2.4,0.8,3.3,3.1,3.6c4.6,0.6,9.1,1.7,13.6,2.3c3.1,0.4,4.7,2.2,5.8,5c2,5.1,4,10.2,6.3,15.1
                  c1.5,3.1,1.4,5.7-0.7,8.4c-2.7,3.6-5.4,7.2-7.7,11c-0.6,1-0.5,3.3,0.3,4.2C36.3,158.3,40,161.9,43.9,166z"></path>
                        <path d="M96.9,196c-2.6,0-4.9,0-7.1-0.1c-6.7-0.1-11.3-3.9-13-10.5c-0.2-0.9-0.4-1.8-0.5-2.6
                  c-1.7-11.4-1.7-11.4-12.5-14.9c-0.6-0.2-1.9,0-2.6,0.5c-1.7,1.1-3.4,2.3-5,3.5c-1.4,1-2.7,2-4.2,2.9c-2.5,1.7-5.2,2.6-7.8,2.6
                  c-3.3,0-6.5-1.4-9.2-4c-4.4-4.1-8.3-8.1-12-12c-4.6-4.9-5.1-10.8-1.3-16.6c0.1-0.1,0.1-0.2,0.2-0.3c0.2-0.4,0.5-0.9,1-1.3
                  c6.2-5.5,6.8-11.7,1.9-19.1c-0.8-1.2-2.1-2.2-3.1-2.5c-2-0.5-4.2-0.8-6.2-1.2c-1.6-0.2-3.2-0.5-4.8-0.8
                  c-6.3-1.3-10.4-6.1-10.5-12.5C0,101.3,0,95.5,0.1,89.8c0.2-6.5,4.1-11.2,10.5-12.6c0.5-0.1,1-0.2,1.5-0.3c2.5-0.6,5-1.2,7.6-1.2
                  c3-0.1,3.8-1.6,5.2-4.1c0.2-0.3,0.3-0.6,0.5-0.9c3.3-5.7,2.7-10-2.2-16.1c-6.8-8.4-6.5-13.9,1.6-22c1-1,1.9-1.9,2.9-2.9
                  c2.2-2.2,4.4-4.4,6.6-6.6c5.2-4.9,11.4-5.4,17.3-1.3c0.2,0.2,0.5,0.3,0.7,0.5l0.5,0.3c5,3.6,7.3,5.3,9.9,5.3c2.2,0,5.1-1.3,9.8-3.5
                  c0.8-0.4,1.7-1.6,1.9-2.8c0.5-2,0.8-4.2,1.2-6.3c0.2-1.4,0.5-2.9,0.7-4.3c1.3-6.8,6.2-10.9,13-11c5.3-0.1,10.8-0.1,16.5,0
                  c7,0.1,11.6,4,13.1,10.9c0,0.1,0.1,0.3,0.1,0.4c0.1,0.5,0.3,1,0.2,1.5c-0.6,8.1,3.5,12.8,13.1,15.2c0.9,0.2,2.4,0,3.1-0.4
                  c1.7-1.1,3.4-2.3,5-3.5c1.3-1,2.7-2,4.2-2.9c2.5-1.6,5-2.5,7.6-2.5c3.2,0,6.4,1.3,9,3.9l1,1c3.8,3.6,7.7,7.4,11.2,11.4
                  c1.4,1.6,2.2,3.5,3.1,5.6c0.4,1,0.9,2,1.4,3.1l0.2,0.5l-0.3,0.5c-0.6,1.1-1.2,2.3-1.7,3.4c-1.2,2.5-2.4,4.9-4.2,6.9
                  c-4.4,5.1-4.9,9-2.1,14.6c2.1,4.2,4,5.6,7.9,6c12.2,1.4,19,3.1,18,20.6c-0.1,1.9-0.1,3.8,0,5.6c0,1.4,0,2.9,0,4.3
                  c-0.2,7-3.9,11.6-10.8,13.2c-0.1,0-0.3,0.1-0.4,0.1c-0.5,0.1-1,0.3-1.6,0.2c-8.5-0.5-13.4,3.5-15.2,12.3c-0.2,1.2-0.1,2.7,0.4,3.5
                  c1.1,1.8,2.3,3.5,3.5,5.1c0.9,1.2,1.8,2.4,2.6,3.7c3.9,5.8,3.3,12-1.4,17c-4.2,4.4-8.1,8.3-12,12c-2.6,2.5-5.7,3.8-9,3.8
                  c-2.6,0-5.2-0.8-7.7-2.4l-0.2-0.2c-0.4-0.3-0.9-0.6-1.3-1c-5.7-6.2-12.1-6.8-19.6-1.9c-0.9,0.6-1.7,1.6-1.9,2.5
                  c-0.6,2.2-0.9,4.6-1.3,6.9c-0.1,0.9-0.3,1.9-0.5,2.8c-1.4,8-6.2,12.2-14.3,12.2C102.5,196,99.7,196,96.9,196z M63.2,165.9
                  c0.4,0,0.8,0.1,1.2,0.2c11.7,3.8,12,4.1,13.9,16.4c0.1,0.8,0.3,1.7,0.5,2.5c1.5,5.9,5.2,8.9,11.1,9c2.1,0,4.5,0.1,7.1,0.1
                  c2.8,0,5.7,0,8.5-0.1c7.2-0.1,11.1-3.4,12.4-10.6c0.2-0.9,0.3-1.9,0.5-2.8c0.4-2.3,0.8-4.7,1.3-7.1c0.4-1.5,1.6-2.9,2.7-3.6
                  c8.3-5.5,15.8-4.7,22.1,2.2c0.2,0.2,0.6,0.5,0.9,0.7l0.3,0.2c4.9,3.1,10.2,2.7,14.3-1.1c3.8-3.6,7.7-7.5,11.9-11.9
                  c4.1-4.4,4.6-9.5,1.2-14.6c-0.8-1.2-1.7-2.4-2.6-3.6c-1.2-1.7-2.5-3.4-3.6-5.3c-0.9-1.5-0.9-3.6-0.7-4.9
                  c1.9-9.3,7.2-13.9,15.8-13.9c0.5,0,1,0,1.4,0c0,0,0,0,0,0c0.3,0,0.6-0.1,1-0.2c0.1,0,0.3-0.1,0.4-0.1c6-1.4,9.1-5.3,9.3-11.4
                  c0-1.4,0-2.8,0-4.2c0-1.9-0.1-3.8,0.1-5.7c0.9-15.9-4.4-17.2-16.3-18.6c-5.1-0.6-7.3-2.9-9.4-7.1c-3.2-6.2-2.5-11.1,2.3-16.8
                  c1.6-1.8,2.7-4.1,3.9-6.5c0.5-1,1-2,1.5-3c-0.5-0.9-0.9-1.8-1.2-2.7c-0.9-2-1.7-3.7-2.8-5.1c-3.4-4-7.3-7.7-11.1-11.3l-1-1
                  c-4.1-4-9.4-4.4-14.2-1.2c-1.4,0.9-2.8,1.9-4.1,2.9c-1.7,1.2-3.4,2.5-5.1,3.6c-0.8,0.5-2,0.8-3.2,0.8c-0.5,0-1-0.1-1.4-0.2
                  c-6.7-1.7-15.4-5.3-14.5-17.3c0-0.2-0.1-0.6-0.2-0.9c0-0.2-0.1-0.3-0.1-0.5c-1.3-6-5.2-9.2-11.3-9.3c-5.7-0.1-11.2-0.1-16.4,0
                  c-5.9,0.1-10,3.6-11.2,9.5c-0.3,1.4-0.5,2.9-0.7,4.3c-0.3,2.1-0.7,4.3-1.2,6.4c-0.4,1.5-1.5,3.4-3,4.1c-5.1,2.4-7.9,3.7-10.6,3.7
                  c-3.1,0-5.6-1.8-11-5.6L51.2,24c-0.2-0.2-0.4-0.3-0.6-0.5c-5.2-3.6-10.4-3.2-14.9,1.1c-2.2,2.1-4.5,4.4-6.6,6.5
                  c-1,1-1.9,1.9-2.9,2.9c-7.4,7.4-7.7,11.7-1.4,19.4c3.9,4.8,6.9,10.4,2.4,18.3c-0.2,0.3-0.3,0.6-0.5,0.8c-1.4,2.6-2.8,5-6.9,5.1
                  c-2.4,0.1-4.8,0.6-7.2,1.2c-0.5,0.1-1,0.2-1.5,0.4c-5.5,1.2-8.8,5.1-8.9,10.7c-0.2,5.7-0.2,11.5,0,17.3c0.1,5.4,3.6,9.5,9,10.7
                  c1.5,0.3,3.1,0.6,4.7,0.8c2.1,0.3,4.3,0.7,6.4,1.2c1.8,0.5,3.4,2.1,4.2,3.3c5.4,8.2,4.7,15.4-2.2,21.6c-0.2,0.2-0.4,0.5-0.6,0.8
                  c-0.1,0.1-0.2,0.3-0.2,0.4c-3.3,5.1-2.9,10,1.1,14.2c3.7,3.9,7.6,7.8,11.9,11.9c2.4,2.3,5.1,3.4,7.9,3.4c2.2,0,4.5-0.8,6.7-2.2
                  c1.4-0.9,2.8-1.9,4.1-2.9c1.7-1.2,3.4-2.4,5.1-3.6C60.9,166.2,62.1,165.9,63.2,165.9z M99.8,185.1c-11.7,0-12.3-0.5-14-12.3
                  c-0.1-0.6-0.1-1.1-0.2-1.7c-0.1-1.3-0.2-2.5-0.7-3.5c-1.5-2.6-2.9-4.3-4.4-5c-5-2.5-10.2-4.7-15.4-6.3c-1.7-0.5-4.3-0.3-6.4,0.6
                  c-1.7,0.7-3.2,1.9-4.8,3.1c-0.7,0.5-1.4,1.1-2.1,1.6l-7.9,5.6l-0.6-0.6c-1.1-1.1-2.1-2.2-3.1-3.2c-2.8-2.9-5.5-5.6-8-8.5
                  c-1-1.2-1.2-3.9-0.4-5.3c2.4-4,5.3-7.7,7.8-11c1.8-2.4,2-4.5,0.6-7.4c-2.4-5-4.4-10.2-6.3-15.2c-1.1-2.8-2.5-4-5-4.4
                  c-2.2-0.3-4.5-0.7-6.7-1.1c-2.3-0.4-4.6-0.9-7-1.2c-2.9-0.4-4.1-1.8-4-4.6c0.1-4.1,0.1-8.3,0-12.5c-0.1-3.1,1.1-4.6,4.1-4.9
                  c2.6-0.3,5.3-0.8,7.8-1.2c1.8-0.3,3.6-0.7,5.4-0.9c2.6-0.4,4.1-1.7,5.1-4.4c2-5.4,4.1-10.6,6.4-15.6c1.2-2.6,1-4.6-0.5-6.7
                  c-2.3-3.1-4.5-6.2-6.8-9.5c-1-1.4-2-2.9-3.1-4.4L29,44l0.6-0.6c1-1,1.9-2,2.9-2.9c3-3,6.1-6.2,9.3-9.1c0.4-0.3,0.9-0.5,1.6-0.5
                  c1,0,2.4,0.4,3.2,0.9c3.4,2.2,6.9,4.7,11,7.8c2.4,1.8,4.4,1.9,7.4,0.5c4.4-2.1,9.3-4.1,14.8-6.2c3-1.1,4.3-2.6,4.7-5.3
                  c0.3-2.5,0.8-5,1.2-7.4c0.4-2.1,0.7-4.2,1.1-6.3c0.3-1.7,1-4.1,4.4-4.1l0.2,0c1.7,0,3.4,0,5.1,0c0.9,0,1.7,0,2.6,0
                  c2.2,0,3.8,0.1,5.3,0.2c1.6,0.1,3.6,2,4,3.6c1,4,1.8,8.3,2.5,13.7c0.4,2.7,1.7,4.1,4.7,5.2c2.2,0.8,4.4,1.7,6.5,2.6
                  c3,1.3,6,2.6,9.1,3.5c0.8,0.3,1.9,0.4,2.9,0.4c1.5,0,2.9-0.3,3.9-0.8c3.3-1.9,6.5-4.2,9.5-6.5c1.2-0.9,2.4-1.8,3.5-2.6l0.7-0.5
                  l14.7,14.7l-0.5,0.7c-0.8,1.1-1.6,2.3-2.4,3.5c-2.1,3-4.3,6.2-6.6,9.3c-1.7,2.3-1.8,4.4-0.4,7.4c2.3,4.8,4.3,9.7,6,14.4
                  c1.2,3.3,2.9,4.8,5.9,5.2c2.3,0.3,4.6,0.7,6.8,1.1c2,0.3,4,0.7,6,1c3.1,0.4,4.4,1.9,4.2,4.9c-0.2,4.3-0.2,8.2,0,12
                  c0.2,3.1-1.2,4.7-4.5,5.1c-2.2,0.3-4.5,0.7-6.7,1.1c-2,0.3-4,0.7-6.1,1c-2.9,0.4-4.5,1.8-5.6,4.9c-1.9,5.3-3.8,10-6,14.4
                  c-1.5,3.1-1.4,5.4,0.4,7.8c1.4,1.8,2.7,3.7,3.9,5.5c1.2,1.8,2.5,3.6,3.9,5.4c1.7,2.2,1.5,4.2-0.6,6.1c-1.2,1.1-2.3,2.4-3.4,3.7
                  c-2.5,2.9-5,5.9-8.1,6.3c-3.2,0.5-6.9-2.6-10.4-5.5c-0.8-0.7-1.7-1.4-2.4-2c-3.7-2.9-6.6-3.1-10.7-0.6c-3.9,2.3-8.3,3.7-12.6,5.1
                  c-3.5,1.1-5,2.9-5.4,6.1c-0.2,2.1-0.6,4.2-1,6.3c-0.2,0.9-0.3,1.8-0.5,2.7c-1.3,7.5-1.7,7.8-9.4,7.8H99.8z M63,154.1
                  c1,0,1.9,0.1,2.7,0.4c5.3,1.7,10.6,3.9,15.7,6.4c1.8,0.9,3.5,2.8,5.2,5.8c0.7,1.3,0.9,2.8,1,4.2c0,0.5,0.1,1.1,0.2,1.6
                  c0.8,5.3,1.2,8.2,2.6,9.4c1.3,1.2,3.9,1.2,9.5,1.2h0.3c3.3,0,5.1,0,5.9-0.7c0.8-0.6,1.1-2.4,1.6-5.6c0.2-0.9,0.3-1.8,0.5-2.8
                  c0.4-2,0.8-4.1,1-6.1c0.4-4,2.5-6.4,6.7-7.8c4.2-1.3,8.5-2.7,12.2-4.9c2.2-1.3,4.2-1.9,6.1-1.9c2.3,0,4.4,0.9,6.8,2.7
                  c0.8,0.6,1.6,1.3,2.5,2.1c3,2.5,6.4,5.4,8.8,5c2.4-0.4,4.7-3.1,6.9-5.7c1.1-1.3,2.3-2.7,3.6-3.9c1.4-1.3,1.4-2,0.3-3.5
                  c-1.3-1.8-2.6-3.6-3.9-5.4c-1.3-1.8-2.6-3.7-3.9-5.4c-2.3-3-2.5-6-0.6-9.8c2.1-4.4,4-9,5.9-14.2c1.3-3.8,3.5-5.7,7.2-6.2
                  c2-0.3,4-0.6,6-1c2.2-0.4,4.5-0.8,6.8-1.1c2.3-0.3,2.9-1,2.8-3.1c-0.2-3.9-0.2-7.8,0-12.2c0.1-1.9-0.5-2.6-2.6-2.9
                  c-2-0.3-4.1-0.6-6.1-1c-2.2-0.4-4.5-0.8-6.7-1.1c-3.8-0.5-6.1-2.5-7.5-6.4c-1.6-4.7-3.6-9.4-5.9-14.2c-1.7-3.6-1.5-6.5,0.6-9.4
                  c2.3-3.1,4.5-6.2,6.6-9.2c0.7-1,1.3-1.9,2-2.8l-12.4-12.4c-0.9,0.7-1.9,1.4-2.8,2.1c-3.1,2.3-6.2,4.6-9.7,6.6
                  c-1.3,0.7-3,1.1-4.8,1.1c-1.2,0-2.4-0.2-3.5-0.5c-3.2-1-6.3-2.3-9.3-3.6c-2.1-0.9-4.2-1.8-6.4-2.6c-2.6-1-5.4-2.5-5.9-6.8
                  c-0.7-5.3-1.5-9.6-2.5-13.5c-0.2-0.8-1.6-2.1-2.3-2.1c-1.5-0.1-3.1-0.2-5.2-0.2c-0.8,0-1.7,0-2.5,0c-1.7,0-3.5,0-5.2,0l-0.2,0
                  c-1.6,0-2.2,0.6-2.5,2.4c-0.3,2.1-0.7,4.3-1.1,6.3c-0.4,2.4-0.9,4.9-1.2,7.3c-0.5,3.4-2.3,5.5-5.9,6.8c-5.4,2-10.2,4-14.6,6.1
                  c-3.7,1.7-6.5,1.5-9.4-0.7c-4.1-3.1-7.5-5.5-10.9-7.7c-0.5-0.3-1.5-0.6-2.1-0.6c-0.3,0-0.4,0-0.4,0c-3.1,2.9-6.2,6-9.1,9
                  c-0.8,0.8-1.6,1.6-2.3,2.4c0.9,1.3,1.8,2.5,2.6,3.7c2.3,3.3,4.5,6.4,6.8,9.5c2,2.7,2.2,5.4,0.7,8.6c-2.2,4.9-4.4,10.1-6.3,15.5
                  c-1.2,3.3-3.3,5.1-6.6,5.6c-1.8,0.3-3.6,0.6-5.3,0.9c-2.6,0.5-5.3,1-8,1.3c-2,0.2-2.5,0.8-2.4,2.9c0.1,4.2,0.1,8.4,0,12.6
                  c-0.1,1.8,0.4,2.4,2.3,2.6c2.4,0.3,4.7,0.8,7.1,1.2c2.2,0.4,4.4,0.8,6.6,1.1c3.2,0.4,5.3,2.2,6.6,5.6c1.9,4.9,3.9,10.1,6.3,15
                  c1.7,3.5,1.4,6.5-0.8,9.4c-2.5,3.3-5.3,7-7.7,10.9c-0.4,0.7-0.3,2.5,0.2,3.1c2.4,2.8,5.1,5.5,7.9,8.4c0.8,0.9,1.7,1.7,2.6,2.6
                  l6.5-4.6c0.7-0.5,1.4-1,2.1-1.6c1.6-1.3,3.3-2.6,5.2-3.4C59.5,154.5,61.3,154.1,63,154.1z"></path>
              </g>
                        <g>
                        <path d="M139.7,97.9c0.1,23.3-18.3,41.8-41.6,41.8c-23.3,0.1-41.8-18.3-41.8-41.6c0-23.3,18.3-41.7,41.6-41.8
                  C121.2,56.3,139.6,74.6,139.7,97.9z M129,98.1c0.1-16.7-14-30.8-30.8-31c-16.5-0.1-30.9,14.1-31.1,30.8
                  c-0.1,16.4,14.4,31,30.9,31.1C114.6,129,128.9,114.8,129,98.1z"></path>
                        <path d="M98,140.7c-23.9,0-42.6-18.7-42.7-42.6c0-11.5,4.4-22.3,12.3-30.3c8-8,18.7-12.4,30.2-12.4
                  c24,0,42.7,18.7,42.8,42.5c0.1,23.9-18.6,42.7-42.5,42.8H98z M98,57.3c-11.1,0-21.3,4.2-28.9,11.9c-7.6,7.6-11.8,17.9-11.8,28.9
                  c0,22.8,17.9,40.6,40.7,40.6h0.1c22.8-0.1,40.6-18,40.6-40.8C138.7,75.1,120.8,57.3,98,57.3z M98.1,129.9
                  C98.1,129.9,98.1,129.9,98.1,129.9H98c-8.2,0-16.4-3.6-22.5-9.8c-6-6.1-9.4-14.2-9.4-22.2c0.2-17.2,14.7-31.8,31.8-31.8l0.3,0
                  c17.3,0.2,31.9,14.8,31.8,32C129.9,115.3,115.3,129.9,98.1,129.9z M97.9,68c-15.7,0-29.7,14-29.8,29.9c-0.1,7.5,3.1,15.1,8.8,20.8
                  c5.7,5.8,13.4,9.2,21.1,9.2h0.1c16.1,0,29.8-13.7,29.9-29.9c0.1-16.1-13.6-29.9-29.9-30L97.9,68z"></path>
              </g>
            </svg>