<svg width="22" height="22" fill="white" version="1.1" xmlns="http://www.w3.org/2000/svg" xmlns:xlink="http://www.w3.org/1999/xlink" x="0px" y="0px" viewBox="0 0 206.1 196.3" enable-background="new 0 0 206.1 196.3" xml:space="preserve">
                        <g>
                        <path d="M13.6,124c6.4,0,12.6-0.2,18.9,0.1c1.2,0.1,2.7,1.7,3.3,2.9c11.4,25,30.1,40.9,57.1,47.1
                  c29.6,6.7,65.2-8.6,80.7-35c23.1-39.4,11.7-84.6-27.4-108.3C116,12.5,74.4,19.1,50.3,46.2c-3.9,4.3-6.9,9.4-10.5,14
                  c-1.9,2.5-1.6,4.4,0.7,6.6C48,74,55.1,81.4,62.3,88.8c1,1.1,2,2.2,3.5,3.8c-22.3,0-43.9,0-65.8,0c0-21.8,0-43.7,0-65.4
                  c7.4,7.5,14.8,14.9,22.8,23c17.7-29.5,42.8-46.3,76-49.7c22.9-2.3,44.2,3.4,63.5,16.2c37.4,24.8,53.2,72,38.3,114
                  c-15.1,42.4-57.5,69.5-101.6,65.1C52,191.1,21,155.6,13.6,124z"></path>
                        <path d="M93.2,51.8c4.9,0,9.4,0,14.7,0c0,3.2,0,6.2,0,9.2c0,10,0.1,20-0.1,29.9c-0.1,3,0.9,4.7,3.5,6.2
                  c12.6,7.3,25.1,14.8,38.1,22.6c-2.7,4.4-5.3,8.6-8.2,13.2c-9.8-5.8-19.4-11.5-29-17.2c-5.5-3.3-11.2-6.4-16.6-9.9
                  c-1.3-0.8-2.8-2.7-2.8-4.1c-0.2-16.1-0.1-32.3-0.1-48.4C92.7,53.1,93,52.6,93.2,51.8z"></path>
              </g>
            </svg>