<svg width="22" height="22" fill="white" version="1.1" xmlns="http://www.w3.org/2000/svg" xmlns:xlink="http://www.w3.org/1999/xlink" x="0px" y="0px" viewBox="0 0 192.4 188.1" enable-background="new 0 0 192.4 188.1" xml:space="preserve">
                        <path d="M47.7,75.1c-1.2,1.1-2.2,2-3.2,2.9c-0.5,0.4-1,0.8-1.5,1.2c-1.1,0.9-2.2,1.9-3.3,2.7c-1.5,1.1-3,2.1-4.5,3.2
              c-3.2,2.3-6.3,4.7-9.5,7c-4.3,3.2-8.6,6.4-12.8,9.6c-2.1,1.5-4.1,3.1-6.1,4.6c-0.7,0.5-1.7,0.5-2.3,0c-0.6-0.6-0.5-1.5,0.2-2.2
              c3.1-3.6,6.3-7.1,9.4-10.7c3-3.4,6.1-6.9,9.1-10.3c2.6-3,5.2-5.9,7.9-8.9c-1.2-1.2-0.7-2.7-0.5-4.1c0.2-2.3,0.5-4.7,0.8-7
              c0.3-2.4,0.7-4.9,1-7.3c0.2-1.2,1.2-1.8,1.9-2.6c2.6-3.1,5.3-6.1,8-9.2c0.6-0.7,1.3-0.9,2.1-0.8c2.9,0.3,5.8,0.6,8.7,1
              c3.1,0.4,6.1,0.8,9.2,1.2c2.2,0.3,4.5,0.5,6.7,0.8c1.8,0.2,3.6,0.5,5.4,0.8c1.7,0.2,3.4,0.4,5.1,0.7c0.6,0.1,1.1,0.4,1.5,0.9
              c1,1.4,2.1,2.7,3.3,4.1c0.7-0.5,1.3-0.9,1.9-1.4c6.8-4.9,13.6-9.8,20.4-14.7c4.7-3.4,9.4-6.8,14.1-10.2c6-4.3,12-8.7,18-13
              c4-2.9,8.1-5.8,12.1-8.8c0.9-0.6,1.6-0.7,2.2-0.2c0.5,0.4,0.7,1.3,0.3,2.2c-0.7,1.3-1.5,2.7-2.2,4c-1.6,2.9-3.2,5.8-4.8,8.8
              c-2.2,4-4.4,8-6.6,12c-1.7,3-3.3,6-5,9.1c-0.8,1.4-1.5,2.8-2.4,4.3c1.5-0.4,3-0.8,4.4-1.2c3.4-0.9,6.7-1.8,10.1-2.8
              c5.3-1.5,10.7-2.9,16-4.4c3.6-1,7.1-1.9,10.7-2.9c4.2-1.2,8.4-2.3,12.6-3.5c0.3-0.1,0.5-0.1,0.8-0.1c0.8-0.1,1.5,0.2,1.7,0.9
              c0.2,0.7,0,1.4-0.7,1.9c-1.3,0.9-2.6,1.8-3.8,2.7c-4.1,3-8.2,5.9-12.3,8.9c-3.8,2.8-7.7,5.5-11.5,8.2c-7.4,5.4-14.9,10.7-22.3,16.1
              c-6.6,4.7-13.2,9.5-19.7,14.2c-2.2,1.6-4.3,3.1-6.5,4.6c-0.5,0.3-1.1,0.4-1.7,0.4c-1.6-0.1-3.2-0.4-4.8-0.5c-0.2,2-0.4,4-0.6,6.1
              c-0.3,2.7-0.5,5.4-0.7,8.1c-0.2,2.8-0.5,5.6-0.7,8.4c-0.2,2.6-0.5,5.2-0.7,7.8c-0.3,3.1-0.6,6.1-0.8,9.2c0,0.3,0.1,0.7,0.3,0.9
              c3.5,3.2,7,6.4,10.4,9.6c1.5,1.4,2.9,2.7,4.4,4.1c0.3,0.3,0.6,0.5,0.9,0.7c0.6,0.4,0.8,1.1,0.7,1.8c-0.3,1.4-0.7,2.8-1.1,4.3
              c-1.1,3.9-2.3,7.8-3.4,11.7c-1,3.4-2,6.9-3.1,10.3c-1.3,4.3-2.5,8.5-3.8,12.8c-0.2,0.7-0.7,1-1.3,1.1c-0.7,0.1-1.3-0.1-1.6-0.7
              c-1.6-2.8-3.2-5.6-4.8-8.4c-1.8-3.2-3.7-6.4-5.6-9.7c-2.1-3.7-4.3-7.4-6.4-11.1c-2-3.4-3.9-6.8-5.9-10.2c-1.9-3.3-3.7-6.6-5.7-9.8
              c-0.7-1.1-1.7-2-2.6-3c-3.7-3.8-7.4-7.6-11.1-11.5c-4.7-4.9-9.5-9.8-14.2-14.7c-1.2-1.3-2.5-2.6-3.7-3.9c-0.6-0.6-0.8-1.2-0.6-2
              c0.9-4.9,1.8-9.7,2.8-14.6C46.5,81.4,47.1,78.4,47.7,75.1z M33,74.2c-9,10.2-18.1,20.5-27.1,30.7c0.2,0,0.3,0,0.3-0.1
              C15.1,98.2,24,91.6,32.9,85c2.1-1.5,4.3-2.9,6.3-4.5c3.5-2.8,6.8-5.7,10.2-8.6c0.2-0.1,0.3-0.2,0.6-0.4c0,0.3,0,0.4-0.1,0.6
              c-1,5-1.9,10.1-2.9,15.1c-0.8,4-1.5,7.9-2.3,11.9c-0.1,0.4,0,0.7,0.3,1c9.7,9.9,19.3,19.9,28.9,29.8c1.3,1.3,2.5,2.6,3.5,4.3
              c9.1,15.9,18.3,31.8,27.4,47.7c0.1,0.2,0.2,0.4,0.4,0.7c0.1-0.3,0.2-0.5,0.3-0.8c3.7-12.4,7.3-24.8,11-37.3c0.2-0.7,0.1-1.1-0.4-1.6
              c-5.2-4.8-10.5-9.6-15.7-14.5c-0.4-0.4-0.6-0.8-0.6-1.4c0.4-3.9,0.7-7.8,1.1-11.8c0.8-8.4,1.5-16.8,2.3-25.1c0.1-1.5,0.3-3,0.4-4.6
              c2.1,0.3,4.1,0.5,6.1,0.8c0.4,0,0.9-0.1,1.2-0.3c24.7-17.8,49.4-35.5,74.1-53.3c0.6-0.4,1.2-0.9,1.8-1.3c0,0,0-0.1-0.1-0.1
              c-19.1,5.2-38.3,10.5-57.4,15.7c0-0.1-0.1-0.1-0.1-0.2c7.6-13.7,15.1-27.5,22.7-41.2c0,0-0.1-0.1-0.1-0.1
              c-22.6,16.3-45.2,32.7-67.8,49c-1.3-1.7-2.6-3.2-3.8-4.9c-0.4-0.5-0.8-0.8-1.5-0.9c-5.4-0.7-10.8-1.4-16.3-2.1
              c-6-0.8-12-1.5-18.1-2.2c-0.3,0-0.7,0.1-0.9,0.3c-3,3.4-5.9,6.7-8.8,10.1c-0.5,0.5-0.7,1.1-0.8,1.8c-0.6,4.6-1.1,9.2-1.7,13.8
              c-0.2,1.3-0.2,2.4,0.9,3.3C32.9,74,32.9,74.1,33,74.2z"></path>
                        <path d="M192,29.3c-0.8-2.1-2.8-3.5-5.2-3.5c-0.2,0-0.5,0-0.7,0c-0.5,0.1-1,0.1-1.4,0.3l-5.8,1.6
              c-2.3,0.6-4.5,1.3-6.8,1.9c-2.6,0.7-5.2,1.4-7.9,2.2l-23.1,6.3c-0.4,0.1-0.7,0.2-1.1,0.3c0.9-1.7,1.9-3.4,2.8-5.2l3.2-5.8
              c1.2-2.1,2.3-4.2,3.5-6.3c0.8-1.5,1.7-3,2.5-4.6c0.8-1.4,1.5-2.8,2.3-4.2c0.3-0.5,0.5-0.9,0.8-1.4c0.5-0.9,1-1.7,1.5-2.7
              c1.3-2.5,0.8-5.5-1.3-7.1c-1-0.8-2.1-1.2-3.4-1.2c-1.3,0-2.5,0.4-3.7,1.3l-4.8,3.5c-2.4,1.8-4.9,3.5-7.3,5.3
              c-4.9,3.5-9.8,7.1-14.7,10.6L84.9,47.1c-0.3-0.4-0.6-0.7-0.8-1.1c-1.1-1.4-2.5-2.3-4.1-2.5c-1.7-0.2-3.4-0.4-5-0.7
              c-0.7-0.1-1.4-0.2-2.1-0.3c-1.1-0.2-2.2-0.3-3.4-0.5c-1.1-0.1-2.2-0.3-3.3-0.4c-1.2-0.1-2.3-0.3-3.5-0.4c-1.3-0.2-2.7-0.4-4-0.5
              c-1.7-0.2-3.5-0.5-5.2-0.7c-1.9-0.2-3.8-0.4-5.6-0.6c-1-0.1-2.1-0.2-3.1-0.3c-2.3-0.3-4.2,0.5-5.6,2.2c-1.1,1.2-2.2,2.5-3.2,3.7
              c-1.6,1.8-3.2,3.6-4.8,5.5c-0.1,0.1-0.2,0.2-0.3,0.3c-0.7,0.7-2.1,2.1-2.4,4.3c-0.1,1.1-0.3,2.1-0.4,3.2c-0.2,1.4-0.4,2.7-0.5,4.1
              l0,0.2c-0.3,2.3-0.6,4.6-0.8,6.9c0,0.2,0,0.4-0.1,0.6c-0.1,0.8-0.3,1.9-0.1,3.1l-0.9,1c-1.8,2-3.6,4-5.3,6l-4.1,4.6
              c-1.7,1.9-3.4,3.8-5,5.7c-1.7,1.9-3.4,3.8-5,5.7c-1.5,1.7-2.9,3.3-4.4,5c-0.6,0.7-1.1,1.5-1.3,2.4l0,0c0,0-1.2,4,2.8,6.3v0
              c0.8,0.4,1.6,0.6,2.5,0.6c1.3,0,2.6-0.4,3.6-1.2l0.8-0.6c1.8-1.3,3.6-2.7,5.4-4c4.2-3.1,8.4-6.3,12.6-9.4l2.5-1.9
              c2.4-1.8,4.8-3.6,7.2-5.3c0.7-0.5,1.4-1,2-1.4c0.7-0.5,1.4-1,2.2-1.5l-0.6,3c-0.6,3.3-1.2,6.6-1.9,9.9c-0.4,2.1,0.2,4,1.7,5.5
              c0.8,0.8,1.6,1.6,2.3,2.4l19,19.5c2.6,2.7,5.2,5.3,7.8,8l0.5,0.5c0.6,0.7,1.3,1.3,1.6,1.8c1.4,2.3,2.8,4.8,4.1,7.1
              c0.5,0.9,1,1.8,1.5,2.6l2.5,4.4c1.1,1.9,2.2,3.9,3.3,5.8c1.3,2.2,2.6,4.5,3.9,6.7l2.9,5.1c1.7,3,3.4,6,5.2,9
              c0.7,1.3,1.4,2.5,2.2,3.8c0.9,1.5,1.8,3.1,2.6,4.6c0.8,1.3,2,2.2,3.4,2.6l4-0.4c1.4-0.7,2.4-1.8,2.8-3.4c1-3.4,2-6.9,3-10.3l1.9-6.4
              c0.6-2.1,1.3-4.3,1.9-6.4c1.1-3.9,2.3-7.8,3.4-11.7c0.4-1.4,0.8-2.9,1.2-4.5c0.5-2.3-0.3-4.6-2.3-6c-0.2-0.1-0.4-0.3-0.5-0.4
              c-0.8-0.7-1.6-1.4-2.3-2.2c-0.7-0.6-1.4-1.3-2.1-1.9l-3-2.8c-2.1-2-4.3-3.9-6.4-5.9c0.2-1.9,0.3-3.9,0.5-5.8l0.4-4.4
              c0.2-1.8,0.3-3.5,0.5-5.3c0.1-1.6,0.3-3.2,0.4-4.8l0.4-4.5c0.2-2.4,0.4-4.8,0.6-7.2c0.1-0.7,0.1-1.3,0.2-2c0.3,0,0.7,0.1,1,0.1
              c0.2,0,0.3,0,0.5,0c0.8,0,2.3-0.1,3.8-1.1c1.7-1.2,3.4-2.4,5-3.6l29.9-21.6c4.6-3.3,9.1-6.6,13.7-9.9c2-1.4,4-2.8,5.9-4.3
              c1.8-1.3,3.7-2.7,5.5-4c2.4-1.7,4.8-3.5,7.3-5.2l6.6-4.8c0.7-0.5,1.5-1.1,2.2-1.6C192.1,34.3,192.9,31.7,192,29.3z M109.3,82.3
              c-1.2-0.1-2.3-0.3-3.5-0.4l-5.7-0.7l-0.5,5.6c-0.1,1.1-0.2,2.1-0.3,3.1c-0.8,8.4-1.5,16.8-2.3,25.1c-0.1,1.2-0.2,2.5-0.3,3.7
              c-0.2,2.7-0.5,5.4-0.7,8c-0.2,1.9,0.4,3.5,1.8,4.8c2.1,1.9,4.2,3.9,6.3,5.9c2.7,2.5,5.5,5,8.2,7.6c-2.7,9.2-5.5,18.5-8.2,27.7l0,0
              l-1.6-2.7c-7.2-12.6-14.4-25.1-21.6-37.7c-1.1-2-2.5-3.5-4-5.1c-9.3-9.6-18.6-19.2-27.9-28.7c0.6-3.1,1.2-6.2,1.8-9.3l0.2-1.2
              c0.9-4.8,1.8-9.6,2.7-14.4l0.1-0.7c0-0.2,0.1-0.4,0.1-0.7l1-9.1l-7.3,5.3l-0.2,0.1c-0.2,0.2-0.4,0.3-0.6,0.5c-1,0.9-2.1,1.8-3.1,2.6
              c-2.3,2-4.7,4-7.1,5.9c-0.9,0.8-1.9,1.5-3,2.2c0,0,2.5-7.9,2.3-8.2c0,0,0-0.1,0-0.2c0.6-4.3,1.1-8.7,1.6-12.9l0.1-0.8
              c1.5-1.7,3-3.4,4.4-5.1c1.1-1.2,2.2-2.5,3.2-3.7c5.6,0.7,11.1,1.3,16.5,2c2.8,0.3,5.5,0.7,8.3,1.1c2.4,0.3,4.8,0.6,7.2,0.9
              c0.8,1,1.5,1.9,2.3,2.9l3.5,4.4l56.7-41l-14.2,25.9l-1,2l0.8,1.5l1,1.8l0.8,1.4l39.5-10.8C147.6,54.7,128.4,68.5,109.3,82.3z"></path>
            </svg>