<?xml version="1.0" encoding="UTF-8" standalone="no"?><!-- Generator: Gravit.io --><svg xmlns="http://www.w3.org/2000/svg" xmlns:xlink="http://www.w3.org/1999/xlink" style="isolation:isolate" viewBox="-1333.286 -1467 1722.286 1722.3" width="1722.286pt" height="1722.3pt"><defs><clipPath id="_clipPath_3p63SfAFZ2OxdGCm8wZgj8QzUWuWRupe"><rect x="-1333.286" y="-1467" width="1722.286" height="1722.3"/></clipPath></defs><g clip-path="url(#_clipPath_3p63SfAFZ2OxdGCm8wZgj8QzUWuWRupe)"><clipPath id="_clipPath_ge4a6P4p6AfNfum4fSLgwXf8Ei0NTeo4"><path d="M -472.145 -1467 L -472.145 -1467 C 3.134 -1467 389 -1081.135 389 -605.857 L 389 -605.843 C 389 -130.565 3.134 255.3 -472.145 255.3 L -472.145 255.3 C -947.424 255.3 -1333.29 -130.565 -1333.29 -605.843 L -1333.29 -605.857 C -1333.29 -1081.135 -947.424 -1467 -472.145 -1467 Z" style="stroke:none;fill:#FFFFFF;stroke-miterlimit:10;"/></clipPath><g clip-path="url(#_clipPath_ge4a6P4p6AfNfum4fSLgwXf8Ei0NTeo4)"><g><g><rect x="-1333.286" y="-1467" width="1722.286" height="1722.3" transform="matrix(1,0,0,1,0,0)" fill="rgb(255,255,255)"/><rect x="-1333.286" y="-1467" width="1722.286" height="1148.201" transform="matrix(1,0,0,1,0,0)" fill="rgb(0,0,0)"/><rect x="-1333.286" y="-1467" width="1722.286" height="574.099" transform="matrix(1,0,0,1,0,0)" fill="rgb(72,145,217)"/></g></g></g></g></svg>